<?xml version="1.0" encoding="UTF-8"?>
<svg version="1.1" xmlns="http://www.w3.org/2000/svg" width="3204" height="1392">
<path d="M0 0 C1057.32 0 2114.64 0 3204 0 C3204 459.36 3204 918.72 3204 1392 C2146.68 1392 1089.36 1392 0 1392 C0 932.64 0 473.28 0 0 Z " fill="#FDFDFD" transform="translate(0,0)"/>
<path d="M0 0 C0.83144531 0.02255859 1.66289063 0.04511719 2.51953125 0.06835938 C4.55547353 0.12686346 6.59047945 0.21653205 8.625 0.3125 C9.13333591 1.55913331 9.63131145 2.80999387 10.125 4.0625 C10.4034375 4.75859375 10.681875 5.4546875 10.96875 6.171875 C11.625 8.3125 11.625 8.3125 11.625 12.3125 C22.845 13.6325 34.065 14.9525 45.625 16.3125 C45.625 20.6025 45.625 24.8925 45.625 29.3125 C44.08972656 29.41046875 42.55445313 29.5084375 40.97265625 29.609375 C16.00041842 31.34824251 -6.21172399 35.65749402 -24.375 54.3125 C-29.79570955 60.72039568 -34.60640464 67.56927934 -39.34765625 74.48828125 C-40.05014748 75.51167351 -40.05014748 75.51167351 -40.76683044 76.55574036 C-44.54438044 82.07181464 -48.27897632 87.61626943 -52.00390625 93.16796875 C-52.57032837 94.01158966 -53.13675049 94.85521057 -53.72033691 95.72439575 C-56.04565578 99.18830744 -58.37088582 102.65225043 -60.68920898 106.12084961 C-67.60290187 116.45997623 -74.63305155 126.57409172 -82.375 136.3125 C-83.35152293 137.56802948 -84.32702993 138.82435097 -85.30078125 140.08203125 C-90.66542195 146.92172863 -96.11006432 153.68869781 -101.60864258 160.42114258 C-105.76896037 165.52970909 -109.78679657 170.72927213 -113.78125 175.96875 C-116.7371134 179.81137241 -119.80617322 183.55993114 -122.875 187.3125 C-127.66530574 193.17258033 -132.33814594 199.10462286 -136.9296875 205.12109375 C-139.46358707 208.4388102 -142.04076919 211.72141466 -144.625 215 C-148.29178288 219.65404415 -151.94283256 224.31981176 -155.57714844 228.99926758 C-156.77126642 230.53569722 -157.96721791 232.07070369 -159.16503906 233.60424805 C-161.97982332 237.21035114 -164.77084338 240.82855145 -167.5 244.5 C-167.98726562 245.14582031 -168.47453125 245.79164063 -168.9765625 246.45703125 C-169.87878154 247.65410958 -170.77029652 248.85936727 -171.6484375 250.07421875 C-174.56331647 253.90812007 -176.87725651 254.90435574 -181.375 256.3125 C-184.8167189 259.61006314 -187.53822395 263.48942764 -190.375 267.3125 C-191.13296875 268.32054687 -191.8909375 269.32859375 -192.671875 270.3671875 C-198.85719464 278.91999155 -206.43817158 289.74064485 -208.375 300.3125 C-201.39171554 299.96453565 -195.06460598 299.20926133 -188.43359375 296.93359375 C-186.375 296.3125 -186.375 296.3125 -183.375 296.3125 C-181.43529231 291.56021616 -179.65580973 286.75090203 -177.875 281.9375 C-177.56691406 281.1125 -177.25882813 280.2875 -176.94140625 279.4375 C-173.70400374 270.72636886 -173.70400374 270.72636886 -172 261.625 C-171.26046342 257.70545615 -170.51729555 256.69755384 -167.375 254.3125 C-164.140625 253.921875 -164.140625 253.921875 -160.625 254.0625 C-159.45453125 254.09859375 -158.2840625 254.1346875 -157.078125 254.171875 C-156.18609375 254.21828125 -155.2940625 254.2646875 -154.375 254.3125 C-153.0336098 288.96508014 -162.15089892 323.51708062 -172.375 356.3125 C-172.69283447 357.36042725 -173.01066895 358.40835449 -173.33813477 359.48803711 C-175.80563395 367.6219248 -178.46983826 375.68117098 -181.17858887 383.73690796 C-181.95845578 386.06249066 -182.73250435 388.38993768 -183.50488281 390.71801758 C-185.90144218 397.93798505 -188.30815719 405.15221151 -190.81114197 412.33610535 C-191.85235352 415.33641152 -192.87299078 418.34349298 -193.89035034 421.35195923 C-194.37055817 422.75603801 -194.85972551 424.15709282 -195.35891724 425.55453491 C-199.1109644 436.07512562 -199.96085929 445.21629071 -199.375 456.3125 C-198.84334229 455.77052979 -198.31168457 455.22855957 -197.76391602 454.67016602 C-193.79588416 450.63648752 -189.74140052 446.78276326 -185.44140625 443.10546875 C-183.98741806 441.84387975 -182.55971944 440.551667 -181.15234375 439.23828125 C-172.84727991 431.5315239 -163.52519676 426.55669677 -151.88671875 426.24609375 C-149.64619994 426.43570588 -147.56367978 426.80331371 -145.375 427.3125 C-144.35986328 427.49039063 -144.35986328 427.49039063 -143.32421875 427.671875 C-137.44399957 429.17903797 -134.59179169 433.14769345 -131.0390625 437.83984375 C-126.69658793 446.90195617 -126.88446298 457.87421972 -126.25 467.75 C-126.12044922 469.58014648 -126.12044922 469.58014648 -125.98828125 471.44726562 C-125.45461769 479.41410016 -125.26967753 487.32888989 -125.375 495.3125 C-104.21262194 489.0389535 -90.86284981 478.09920016 -77.83984375 460.57421875 C-74.01966025 455.45446457 -69.84261652 450.63100042 -65.66259766 445.80419922 C-64.47750317 444.43125131 -63.30642002 443.04624205 -62.13671875 441.66015625 C-48.71704624 426.13062664 -31.89886132 413.71072352 -11.12109375 410.8671875 C-5.34959276 410.63161603 -1.83838838 411.38046738 2.625 415.3125 C3.49769531 416.0034375 4.37039063 416.694375 5.26953125 417.40625 C8.4888908 421.37839512 8.20669184 424.18429431 7.9375 429.125 C7.91494141 429.91326172 7.89238281 430.70152344 7.86914062 431.51367188 C7.81054161 433.44743929 7.72086827 435.38022167 7.625 437.3125 C2.48255202 437.52239584 -1.46007678 436.72594197 -6.375 435.3125 C-13.79413797 434.34116196 -22.12903701 433.73659778 -28.5625 438 C-29.86047376 439.07213129 -31.13501773 440.17379663 -32.375 441.3125 C-33.365 442.034375 -34.355 442.75625 -35.375 443.5 C-39.99916504 447.49824215 -43.632547 452.51350414 -47.375 457.3125 C-48.41914063 458.61574219 -48.41914063 458.61574219 -49.484375 459.9453125 C-60.67282685 474.47295346 -64.91350042 490.35803245 -67.375 508.3125 C-51.32576831 501.28062014 -41.31500345 489.68062005 -31.25 475.625 C-25.66267579 467.89808537 -20.33165783 461.60341479 -12.3125 456.375 C-11.73483887 455.99714355 -11.15717773 455.61928711 -10.56201172 455.22998047 C-4.03516124 451.17544988 0.93212349 450.3125 8.625 450.3125 C8.625 463.8425 8.625 477.3725 8.625 491.3125 C29.43637308 484.37537564 43.24214219 477.01753791 53.14453125 457.45703125 C57.62825716 448.29602519 61.71538408 439.03664003 65.17578125 429.44140625 C67.43940925 424.55416628 70.1348149 421.17222217 74.875 418.4375 C79.28242459 417.11527262 83.06843109 417.03352639 87.625 417.3125 C88.13280894 419.51905075 88.63091365 421.72783605 89.125 423.9375 C89.4034375 425.16726563 89.681875 426.39703125 89.96875 427.6640625 C90.56591621 430.98402228 90.74909534 433.95158451 90.625 437.3125 C91.57117187 436.59707031 92.51734375 435.88164063 93.4921875 435.14453125 C97.06838028 432.44579419 100.65779483 429.76509669 104.25048828 427.08837891 C105.82828405 425.90835769 107.40222041 424.72315771 108.97216797 423.53271484 C122.28694538 413.44019705 133.72809278 406.06770176 151.125 407.5625 C155.80016556 408.56432119 155.80016556 408.56432119 157.625 411.3125 C157.94213332 414.13249923 158.04779391 416.67902801 158 419.5 C157.99347412 420.34554443 157.98694824 421.19108887 157.98022461 422.06225586 C157.80844483 430.86308079 157.01032966 439.61577829 156.1875 448.375 C156.08668121 449.45109024 156.08668121 449.45109024 155.98382568 450.54891968 C154.82651924 462.70794229 154.82651924 462.70794229 153.625 466.3125 C171.04003062 457.18252031 187.82719495 448.14711164 203.00390625 435.49609375 C215.81642626 424.82217619 215.81642626 424.82217619 221.3125 424.8125 C222.405625 424.9775 223.49875 425.1425 224.625 425.3125 C222.74679967 438.48528342 213.88217349 449.40055259 204.625 458.3125 C203.79484375 459.13878906 202.9646875 459.96507812 202.109375 460.81640625 C194.5609844 468.02905555 186.08692421 473.95244505 177.55688477 479.93725586 C176.20609536 480.89883765 174.87895228 481.89411923 173.57128906 482.91357422 C165.48784381 488.72367724 152.91404046 488.74064732 143.375 488.875 C142.3749292 488.90166748 141.3748584 488.92833496 140.34448242 488.95581055 C139.40064697 488.95105713 138.45681152 488.94630371 137.484375 488.94140625 C136.22318848 488.9424939 136.22318848 488.9424939 134.93652344 488.94360352 C131.40068714 487.97823207 130.43272495 486.46335486 128.625 483.3125 C128.08394529 480.38916884 128.11092982 477.54002371 128.1640625 474.57421875 C128.16543716 473.31482231 128.16543716 473.31482231 128.1668396 472.02998352 C128.17286736 470.25731745 128.18858865 468.48466117 128.21337891 466.7121582 C128.24973933 464.01930549 128.2543989 461.32783759 128.25390625 458.63476562 C128.26374456 456.90623827 128.27540466 455.17772014 128.2890625 453.44921875 C128.29128815 452.65311691 128.29351379 451.85701508 128.29580688 451.03678894 C128.38264614 445.83674873 129.19631855 441.31644786 130.625 436.3125 C121.21091083 444.13873589 112.29980849 452.3178233 103.6730957 461.00366211 C101.80316859 462.88438528 99.92267362 464.75406819 98.04101562 466.62304688 C91.10684673 473.54981635 84.70939267 480.6207539 78.625 488.3125 C74.20549837 493.51755856 69.58549684 498.62013813 64.625 503.3125 C63.26375 504.7046875 63.26375 504.7046875 61.875 506.125 C57.56318075 509.02718603 54.67778568 509.08985164 49.625 508.3125 C47.784095 507.79715286 45.95070059 507.25436088 44.125 506.6875 C37.61231666 504.74735797 33.10079862 506.01637631 26.89355469 508.33105469 C21.24636925 510.02672883 15.54613797 509.80572048 9.6875 509.875 C8.43775391 509.92462891 7.18800781 509.97425781 5.90039062 510.02539062 C-4.38384993 510.14008476 -4.38384993 510.14008476 -8.5390625 506.0859375 C-10.0925293 504.16333008 -10.0925293 504.16333008 -11.375 502.3125 C-12.03371094 501.43722656 -12.69242188 500.56195312 -13.37109375 499.66015625 C-13.84675781 498.90605469 -14.32242187 498.15195312 -14.8125 497.375 C-15.30621094 496.60285156 -15.79992188 495.83070313 -16.30859375 495.03515625 C-16.66050781 494.46667969 -17.01242187 493.89820313 -17.375 493.3125 C-17.99246094 494.14652344 -18.60992188 494.98054688 -19.24609375 495.83984375 C-33.05273523 514.28811255 -49.06678699 526.8362751 -72.375 530.3125 C-78.33475016 530.85252103 -83.41024418 531.25979298 -88.875 528.625 C-89.7 527.861875 -90.525 527.09875 -91.375 526.3125 C-92.24511719 525.61125 -93.11523438 524.91 -94.01171875 524.1875 C-97.17355096 520.34103966 -96.96648203 517.8027829 -96.6875 513 C-96.66494141 512.25943359 -96.64238281 511.51886719 -96.61914062 510.75585938 C-96.5605815 508.94052643 -96.47090886 507.12624319 -96.375 505.3125 C-96.88772461 505.61953857 -97.40044922 505.92657715 -97.92871094 506.24291992 C-103.69822843 509.68253934 -109.51507899 513.02938549 -115.375 516.3125 C-116.45265625 516.9209375 -117.5303125 517.529375 -118.640625 518.15625 C-126.98201607 522.2554479 -137.25916583 523.29235919 -146.375 521.3125 C-151.90853394 518.05795041 -153.62249121 513.26098815 -155.375 507.3125 C-155.61550903 504.46499634 -155.61550903 504.46499634 -155.60205078 501.49072266 C-155.60189972 500.37001373 -155.60174866 499.24930481 -155.60159302 498.09463501 C-155.59127045 496.90067108 -155.58094788 495.70670715 -155.5703125 494.4765625 C-155.5674826 493.24207367 -155.56465271 492.00758484 -155.56173706 490.73568726 C-155.55056522 486.80285851 -155.52546564 482.87025963 -155.5 478.9375 C-155.48883825 476.26693041 -155.48084119 473.59636299 -155.47265625 470.92578125 C-155.45063565 464.38794275 -155.41718759 457.8502378 -155.375 451.3125 C-157.27549263 452.22612194 -159.17181987 453.14841115 -161.06640625 454.07421875 C-162.12287354 454.58686279 -163.17934082 455.09950684 -164.26782227 455.62768555 C-175.68541239 461.81868024 -182.88861844 473.06797787 -190.375 483.3125 C-191.26255002 484.50555873 -192.15053833 485.69829158 -193.0390625 486.890625 C-203.70924203 501.35455319 -212.37732083 516.85929989 -220.55078125 532.83984375 C-222.51833642 536.66679368 -224.4981629 540.48631294 -226.51953125 544.28515625 C-226.98593018 545.1656665 -227.4523291 546.04617676 -227.93286133 546.95336914 C-231.28837948 552.44251286 -236.12629957 555.82312815 -242.17578125 557.85546875 C-246.23554455 558.69914958 -250.25636844 558.49986457 -254.375 558.3125 C-254.66896105 550.38005689 -253.77430497 542.83046339 -252.5625 535 C-252.39685547 533.86626953 -252.23121094 532.73253906 -252.06054688 531.56445312 C-250.14181523 518.8573813 -246.997377 506.5142052 -243.625 494.125 C-243.44124817 493.44873566 -243.25749634 492.77247131 -243.06817627 492.07571411 C-238.35177811 474.77854049 -233.13605185 457.62811668 -227.94224548 440.46966553 C-222.61288996 422.85955962 -217.45637097 405.2010387 -212.4375 387.5 C-206.66347307 367.23805584 -200.67116387 347.04931541 -194.34399414 326.95336914 C-192.51045155 321.10408392 -190.77342387 315.2815619 -189.375 309.3125 C-205.48775387 315.05090991 -220.21956609 321.0846022 -233.375 332.3125 C-234.16132812 332.95445312 -234.94765625 333.59640625 -235.7578125 334.2578125 C-243.0543381 340.45642829 -248.69914001 347.67479441 -254.375 355.3125 C-254.91141113 356.03260254 -255.44782227 356.75270508 -256.00048828 357.49462891 C-259.54732933 362.26642574 -263.06617431 367.0583527 -266.57666016 371.85693359 C-270.07843272 376.63847425 -273.59979337 381.40560034 -277.11767578 386.17529297 C-280.07863478 390.19143008 -283.03439407 394.21120969 -285.98046875 398.23828125 C-292.53726704 407.19021634 -299.20928952 416.0180908 -306.10888672 424.70800781 C-308.56981083 427.82663359 -310.97849359 430.98551387 -313.39550781 434.13818359 C-317.63566253 439.66298253 -321.91653973 445.15586075 -326.19580078 450.65039062 C-329.66677541 455.10942531 -333.12388935 459.57847386 -336.5625 464.0625 C-344.41135231 474.27623453 -352.3890921 484.37290337 -360.53833008 494.34863281 C-364.04310441 498.6467158 -367.47634894 502.9927905 -370.875 507.375 C-375.29263868 513.05539971 -379.93973984 518.50516511 -384.6796875 523.91821289 C-387.81277692 527.49842029 -390.8823763 531.11282785 -393.875 534.8125 C-398.47052024 540.48338877 -403.25480752 545.98000136 -408.046875 551.484375 C-411.19441542 555.09984246 -414.32040809 558.73326935 -417.4375 562.375 C-417.92766602 562.94766602 -418.41783203 563.52033203 -418.92285156 564.11035156 C-419.9108886 565.26490438 -420.89884448 566.41952666 -421.88671875 567.57421875 C-423.39172049 569.33202918 -424.89867703 571.08814446 -426.40625 572.84375 C-431.24850405 578.48382676 -436.07848037 584.13345527 -440.875 589.8125 C-449.16686476 599.62244606 -457.46579235 609.40287594 -466.1484375 618.87109375 C-468.06633207 620.97404833 -469.94876045 623.09919156 -471.8125 625.25 C-475.20107952 629.14885973 -478.6921753 632.95097682 -482.18945312 636.75195312 C-485.0845317 639.899808 -487.95861008 643.06462378 -490.8125 646.25 C-502.11014243 658.82964441 -513.69925391 671.15138908 -525.28125 683.46875 C-532.06049357 690.68008279 -538.79113532 697.9214182 -545.375 705.3125 C-546.87412796 706.97995109 -548.37414535 708.64660291 -549.875 710.3125 C-552.09243841 712.77504386 -554.30874068 715.23851646 -556.51953125 717.70703125 C-558.79801916 720.24826371 -561.08637068 722.78039948 -563.375 725.3125 C-564.54095703 726.61960937 -564.54095703 726.61960937 -565.73046875 727.953125 C-570.86278706 733.62369235 -576.14126268 739.09861531 -581.59765625 744.45703125 C-582.15488373 745.00623734 -582.71211121 745.55544342 -583.28622437 746.12129211 C-586.12209003 748.91603735 -588.96727315 751.69989497 -591.83007812 754.46704102 C-592.89888185 755.51663756 -593.96725863 756.56666907 -595.03515625 757.6171875 C-595.52846939 758.08667313 -596.02178253 758.55615875 -596.53004456 759.03987122 C-600.05407379 762.53731937 -601.67880795 765.73984744 -603.375 770.3125 C-602.40304687 770.02117188 -601.43109375 769.72984375 -600.4296875 769.4296875 C-593.31639832 767.31120133 -586.19489531 765.24647613 -579.02409363 763.33058167 C-565.27628299 759.65116861 -551.67159439 755.53347084 -538.0625 751.375 C-513.64107633 743.91589976 -489.16785156 736.87187937 -464.375 730.75 C-462.44811179 730.27143757 -460.52127323 729.79267514 -458.59448242 729.3137207 C-445.78463833 726.13425733 -432.96256264 723.00989855 -420.11914062 719.96875 C-417.34174015 719.30454604 -414.56901385 718.62331059 -411.796875 717.9375 C-396.84931855 714.25837343 -381.82529053 710.99832791 -366.76391602 707.82299805 C-357.70221389 705.90786813 -348.65898936 703.93010308 -339.62992859 701.8658905 C-321.87101216 697.80912056 -304.05148018 694.10852367 -286.1932373 690.5168457 C-283.15246752 689.90438046 -280.11241519 689.28839586 -277.07237339 688.67232895 C-273.36234723 687.9207106 -269.65188329 687.1712637 -265.94140625 686.421875 C-264.92976001 686.21724262 -264.92976001 686.21724262 -263.89767647 686.00847626 C-255.20542404 684.25195271 -246.50255979 682.57106068 -237.78245544 680.95976257 C-233.78253054 680.19995757 -229.83664497 679.31307244 -225.875 678.375 C-218.03560295 676.57807745 -210.15608763 675.22792523 -202.21777344 673.94897461 C-193.82548534 672.58519525 -185.47588145 671.03316517 -177.125 669.4375 C-163.73927679 666.88283563 -150.32015866 664.58268082 -136.86816406 662.40478516 C-128.82684911 661.09655026 -120.84932394 659.62730626 -112.8659668 657.99780273 C-107.70360037 656.98439183 -102.51682907 656.20017443 -97.3125 655.4375 C-86.52404864 653.81827981 -75.76186294 652.07104621 -65.00756836 650.23876953 C-43.53629975 646.60823683 -21.97916109 643.49166855 -0.4375 640.3125 C2.94471403 639.81255238 6.32689666 639.31239281 9.70907593 638.81221008 C11.95986265 638.4795221 14.21069671 638.14715428 16.46157837 637.81510925 C22.16913838 636.97293874 27.87595753 636.12620513 33.58154297 635.27075195 C47.33005402 633.21260104 61.08356821 631.24850168 74.875 629.5 C75.8451001 629.37688446 76.8152002 629.25376892 77.81469727 629.12692261 C143.09920073 620.87787713 208.6008677 614.51411317 274.25 610 C275.34494781 609.9246402 276.43989563 609.8492804 277.56802368 609.77163696 C297.57464683 608.41100423 317.5980519 607.32389659 337.625 606.3125 C338.36529198 606.27491955 339.10558395 606.2373391 339.86830902 606.19861984 C351.65884241 605.60330094 363.45193045 605.10744263 375.25 604.6875 C376.15950912 604.65508965 377.06901825 604.62267929 378.00608826 604.5892868 C422.96961198 603.01719755 467.95423659 602.97736893 512.93988883 602.94544256 C518.83628684 602.94111031 524.73265705 602.93268105 530.62904352 602.92027998 C576.38143281 602.82472592 621.95855401 603.34171016 667.64515686 605.92611694 C677.32344718 606.47046578 687.00608432 606.9240547 696.68865967 607.38442993 C697.74704733 607.43478331 698.80543499 607.48513668 699.895895 607.53701591 C702.04798141 607.63928783 704.20009351 607.74102035 706.35222816 607.8422718 C707.40044935 607.89236837 708.44867054 607.94246494 709.52865601 607.99407959 C710.45740728 608.03806759 711.38615856 608.08205559 712.34305382 608.12737656 C728.1560261 608.99794681 728.1560261 608.99794681 734.625 614.3125 C738.45643473 618.839236 740.31132029 623.58007944 741.625 629.3125 C735.81263733 632.28326314 730.20002112 633.77452851 723.625 633.3125 C720.81374401 632.34364906 718.3200499 631.17015741 715.71875 629.734375 C704.26850277 624.47188764 692.86386891 624.89094631 680.52563477 624.94018555 C678.38806481 624.93775379 676.250496 624.93403076 674.1129303 624.92912292 C668.31161936 624.91973052 662.51047784 624.92914317 656.70918012 624.94245505 C650.56173035 624.95386929 644.41428778 624.94965228 638.26683044 624.94770813 C627.88399553 624.9468245 617.50122576 624.95788853 607.1184082 624.97631836 C596.5998319 624.99488885 586.08133567 625.00222312 575.56274414 624.99682617 C492.17404385 624.93501855 492.17404385 624.93501855 408.82357407 627.18142319 C405.74934549 627.30740435 402.67496998 627.42870932 399.60049438 627.54849243 C388.85427235 627.97065569 378.11242232 628.45614898 367.37191772 629.00434494 C364.89280467 629.13045283 362.41357979 629.25415994 359.93432617 629.37747192 C274.85714214 633.62313165 189.88924056 640.34134274 49.39591694 657.4412365 C41.62954087 658.44316098 33.860628 659.4248427 26.09170723 660.40680122 C20.62280505 661.09873474 15.1544091 661.79465494 9.68600464 662.49050903 C6.75966179 662.86286256 3.83316669 663.23397913 0.90652466 663.60397339 C-25.26763482 666.91666603 -51.38820887 670.61288708 -77.375 675.1875 C-79.52475743 675.56213406 -81.67471015 675.93563376 -83.82467651 676.30906677 C-85.31915351 676.568714 -86.81355898 676.8287732 -88.30789185 677.08924866 C-94.28245827 678.12893154 -100.26167656 679.1396722 -106.2421875 680.14453125 C-109.0096365 680.61106786 -111.77703908 681.07787907 -114.54443359 681.54473877 C-116.3209119 681.84366387 -118.09759889 682.1413519 -119.87451172 682.43768311 C-128.86086371 683.93733739 -137.75304131 685.54569826 -146.61621094 687.67602539 C-150.40833864 688.55089946 -154.2116889 689.14215778 -158.0625 689.6875 C-165.97519428 690.87567602 -173.83116947 692.29703121 -181.6875 693.8125 C-182.73574951 694.01407715 -183.78399902 694.2156543 -184.86401367 694.42333984 C-190.06636383 695.43559677 -195.25274374 696.49784069 -200.4296875 697.6328125 C-212.3053214 700.1970652 -224.25598168 702.40131341 -236.1875 704.6875 C-241.11090397 705.63163473 -246.03405912 706.57705376 -250.95703125 707.5234375 C-252.1612674 707.75448181 -253.36550354 707.98552612 -254.60623169 708.22357178 C-260.56136361 709.36984099 -266.51152793 710.53576813 -272.45458984 711.74316406 C-273.58112473 711.97170074 -274.70765961 712.20023743 -275.86833191 712.43569946 C-277.97301175 712.8644824 -280.07700613 713.29665093 -282.18013 713.73300171 C-287.23594067 714.76383325 -292.22892772 715.61397055 -297.36875916 716.0879364 C-300.40039914 716.42727551 -303.35477437 717.07408514 -306.33886719 717.69677734 C-310.15699604 718.47108749 -313.98706342 719.16833334 -317.8203125 719.86328125 C-319.39446251 720.14958869 -320.96859957 720.43596738 -322.54272461 720.72241211 C-323.35144012 720.8695163 -324.16015564 721.01662048 -324.99337769 721.16818237 C-338.33395994 723.59942744 -351.64490954 726.10934047 -364.90625 728.9453125 C-370.04444401 730.04232356 -375.19214351 731.0855845 -380.34375 732.1171875 C-399.50898576 735.96472873 -418.54586031 740.12574735 -437.51205444 744.85855103 C-442.08124919 745.99755624 -446.65707233 747.10568506 -451.23828125 748.1953125 C-468.47323234 752.29761737 -485.50051506 756.68026584 -502.37084961 762.09326172 C-507.24642146 763.65586243 -512.13502326 765.11007021 -517.0625 766.5 C-564.59568527 780.16324383 -611.51426227 799.79826071 -654.53125 824.203125 C-659.97511676 827.22936788 -663.97809956 828.60436677 -670.3125 828.625 C-671.49714844 828.64175781 -672.68179688 828.65851562 -673.90234375 828.67578125 C-677.67589716 828.28102257 -680.11291176 827.20002892 -683.375 825.3125 C-682.64959255 806.45190629 -666.13472584 792.76429962 -653.68457031 780.41625977 C-651.37505343 778.12505301 -649.07369319 775.82589134 -646.7734375 773.52539062 C-645.2869296 772.04379785 -643.79996579 770.56266233 -642.3125 769.08203125 C-641.63517822 768.4058223 -640.95785645 767.72961334 -640.26000977 767.03291321 C-637.19353246 763.99633698 -634.10416215 761.04849559 -630.81469727 758.25439453 C-624.00344514 752.36376739 -617.76081395 745.84158304 -611.40234375 739.47265625 C-609.95095649 738.02194381 -608.49942092 736.57137975 -607.04774475 735.12095642 C-604.01612391 732.09080417 -600.98630433 729.05886547 -597.95776367 726.02563477 C-594.0924191 722.15459345 -590.22260175 718.2880596 -586.35141659 714.42286015 C-583.35632263 711.43139448 -580.36363271 708.43753289 -577.37164497 705.44296074 C-575.94634779 704.01700056 -574.52031872 702.5917715 -573.09351921 701.16731453 C-562.9300093 691.02419671 -562.9300093 691.02419671 -553.375 680.3125 C-551.75532183 678.53679779 -550.13088282 676.76541693 -548.5 675 C-545.28666589 671.48361192 -542.21422602 667.9154102 -539.25 664.1875 C-533.34932502 656.87692923 -526.79468238 650.17479495 -520.32470703 643.37109375 C-516.07826586 638.88749846 -511.90228398 634.33870796 -507.72900391 629.78710938 C-506.39959476 628.3392855 -505.06507694 626.89615779 -503.73046875 625.453125 C-498.81591522 620.10826494 -494.13982621 614.63572147 -489.58203125 608.984375 C-487.45876662 606.4139095 -485.25688151 603.95330637 -483 601.5 C-478.98360046 597.09379392 -475.32363019 592.48252895 -471.67675781 587.77294922 C-467.83227151 582.83327789 -463.80777556 578.07366485 -459.70678711 573.34594727 C-456.76781662 569.95409714 -453.91761238 566.51465664 -451.125 563 C-446.46614456 557.24444319 -441.35732435 551.94335742 -436.25244141 546.58422852 C-431.74485685 541.83082397 -427.52395445 536.98575503 -423.44921875 531.85546875 C-421.16597073 529.05623247 -418.76083288 526.40575594 -416.3125 523.75 C-412.56844737 519.67288747 -409.03857847 515.50499531 -405.62109375 511.15234375 C-403.90326451 508.98041008 -402.16786119 506.83071453 -400.41015625 504.69140625 C-394.34660513 497.30726297 -388.44836558 489.83909339 -382.75048828 482.16894531 C-378.2325609 476.09254841 -373.56129803 470.14712138 -368.8671875 464.20654297 C-359.79809501 452.69508689 -350.87010116 441.07424257 -341.98388672 429.42138672 C-339.28414153 425.88263119 -336.57930311 422.34777277 -333.875 418.8125 C-332.7916425 417.39585181 -331.70830916 415.97918515 -330.625 414.5625 C-324.12500002 406.06250002 -324.12500002 406.06250002 -322.50073242 403.93847656 C-321.41493353 402.51857316 -320.32915888 401.09865122 -319.2434082 399.67871094 C-316.57299415 396.18641567 -313.90219105 392.69441954 -311.23046875 389.203125 C-305.95473438 382.30810583 -300.68434505 375.4090807 -295.42382812 368.50244141 C-293.39377439 365.83714922 -291.36290856 363.17247717 -289.33203125 360.5078125 C-286.74242147 357.10954427 -284.15686107 353.70825316 -281.57421875 350.3046875 C-280.40369147 348.76559029 -279.23312085 347.22652604 -278.0625 345.6875 C-277.52947266 344.98302734 -276.99644531 344.27855469 -276.44726562 343.55273438 C-275.95291016 342.90369141 -275.45855469 342.25464844 -274.94921875 341.5859375 C-274.52213623 341.02310059 -274.09505371 340.46026367 -273.6550293 339.88037109 C-272.32082741 338.24614555 -270.89047204 336.77851543 -269.375 335.3125 C-287.7636513 337.55565463 -305.83747239 343.13460804 -323.52294922 348.46435547 C-327.20598705 349.55961942 -330.90399103 350.59713622 -334.60400391 351.63330078 C-342.75292299 353.91752446 -350.81873518 356.35452416 -358.81396484 359.13305664 C-364.39307671 361.05535773 -370.04517627 362.662973 -375.72290039 364.26806641 C-381.46545494 365.91033182 -387.17118588 367.66601506 -392.875 369.4375 C-394.12563232 369.82583008 -395.37626465 370.21416016 -396.66479492 370.61425781 C-406.60718239 373.71512806 -416.49193285 376.97755625 -426.36279297 380.29931641 C-433.61959165 382.73951542 -440.88856197 385.13641357 -448.17578125 387.484375 C-449.01992081 387.7564679 -449.86406036 388.02856079 -450.73377991 388.30889893 C-451.58435471 388.58304626 -452.4349295 388.8571936 -453.3112793 389.13964844 C-466.90042595 393.51972574 -480.44753397 397.95591428 -493.875 402.8125 C-522.22101286 413.05255538 -522.22101286 413.05255538 -533.375 413.3125 C-534.45616334 419.57052782 -535.45869218 425.83561106 -536.36708069 432.12083435 C-537.4860798 439.80400397 -538.72125255 447.44691999 -540.1953125 455.0703125 C-540.36752319 455.96754532 -540.53973389 456.86477814 -540.71716309 457.78919983 C-542.89134652 469.06664631 -545.16977839 480.32347226 -547.44775391 491.58032227 C-553.2275675 519.44732107 -553.2275675 519.44732107 -557.0625 547.625 C-557.18278564 548.82342529 -557.30307129 550.02185059 -557.42700195 551.2565918 C-558.57193728 563.25434624 -559.08487536 575.26671737 -559.375 587.3125 C-538.38757736 584.03010689 -522.74029373 578.39538194 -507.375 563.3125 C-506.49585938 562.47203125 -505.61671875 561.6315625 -504.7109375 560.765625 C-497.97608465 554.21843059 -491.98938107 547.12702305 -486.3515625 539.6171875 C-481.55977834 533.5753727 -481.55977834 533.5753727 -477.875 532.7578125 C-475.63058888 532.75079872 -473.57809992 532.89941876 -471.375 533.3125 C-474.19941997 552.74450938 -490.16489188 570.78019412 -503.375 584.3125 C-504.07625 585.075625 -504.7775 585.83875 -505.5 586.625 C-510.07182207 591.4739022 -515.08940976 595.58995531 -520.375 599.625 C-521.02750732 600.12902344 -521.68001465 600.63304687 -522.35229492 601.15234375 C-528.39197886 605.65370988 -534.91874536 608.64596276 -542.0625 611 C-543.08923828 611.34611328 -543.08923828 611.34611328 -544.13671875 611.69921875 C-546.87369906 612.4491418 -549.56608659 612.88875535 -552.375 613.3125 C-553.16994873 613.46565674 -553.96489746 613.61881348 -554.78393555 613.77661133 C-561.67006115 614.9867125 -568.74744077 615.98536647 -575.375 613.3125 C-582.14084844 606.85437746 -585.72432567 597.76832877 -589.375 589.3125 C-590.03108834 587.97392975 -590.69344337 586.63828384 -591.375 585.3125 C-592.035 585.3125 -592.695 585.3125 -593.375 585.3125 C-594.8073278 586.72897671 -594.8073278 586.72897671 -596.3125 588.625 C-612.13619766 607.12404448 -632.49650874 624.05457741 -657.66796875 626.65234375 C-665.38491912 626.89200059 -671.0445632 625.54538387 -677.03125 620.484375 C-681.05931588 616.35631224 -681.20209132 612.71826278 -681.19506836 607.11352539 C-681.1513208 605.96231201 -681.10757324 604.81109863 -681.0625 603.625 C-681.03615479 602.42544678 -681.00980957 601.22589355 -680.98266602 599.98999023 C-680.35343541 581.30121813 -676.67208646 558.7404403 -665.375 543.3125 C-664.96378906 542.68601562 -664.55257812 542.05953125 -664.12890625 541.4140625 C-661.64912684 538.34076211 -660.10799491 537.39637069 -656.09765625 536.9375 C-652.83561215 536.9375 -649.6283684 537.09753081 -646.375 537.3125 C-646.85933191 547.44006764 -648.24368676 557.18536238 -650.1875 567.125 C-650.4575026 568.53729456 -650.72719416 569.94964861 -650.99658203 571.36206055 C-652.67837205 580.10543599 -654.52826597 588.79269428 -656.7109375 597.42578125 C-657.48709263 600.30608747 -657.48709263 600.30608747 -657.375 603.3125 C-652.99229173 601.34101288 -648.61887256 599.35054226 -644.25244141 597.34326172 C-642.7710282 596.66533775 -641.28735005 595.9923377 -639.80126953 595.32470703 C-630.70112839 591.23179123 -622.86914926 587.04266446 -615.375 580.3125 C-614.43527344 579.55582031 -613.49554687 578.79914062 -612.52734375 578.01953125 C-594.61013224 562.6935214 -587.00164942 539.61625386 -582.5 517.15625 C-582.12319092 515.32181335 -582.12319092 515.32181335 -581.73876953 513.45031738 C-580.94394869 509.57241663 -580.15933425 505.69253374 -579.375 501.8125 C-578.84962441 499.24205127 -578.32358771 496.67173757 -577.796875 494.1015625 C-574.95805581 480.24000381 -574.95805581 480.24000381 -572.21704102 466.35888672 C-569.05325977 450.04661741 -569.05325977 450.04661741 -566.3125 442.4375 C-566.06951172 441.71949219 -565.82652344 441.00148438 -565.57617188 440.26171875 C-564.13500028 436.09493615 -562.35850989 432.25597664 -560.375 428.3125 C-560.375 427.6525 -560.375 426.9925 -560.375 426.3125 C-561.56947754 426.75416504 -562.76395508 427.19583008 -563.99462891 427.65087891 C-567.59716014 428.98290745 -571.19980868 430.31461831 -574.80249023 431.64624023 C-578.96905675 433.18637162 -583.13517668 434.72770357 -587.30102539 436.26977539 C-597.21935474 439.9396925 -607.14075188 443.59968862 -617.08203125 447.20703125 C-634.09797978 453.38965891 -650.91978118 459.73054407 -667.375 467.3125 C-669.04554484 468.06646846 -670.71611759 468.82037508 -672.38671875 469.57421875 C-702.5417123 483.34564892 -728.62369523 502.92378314 -751.6640625 526.671875 C-757.56356631 532.70949428 -763.775577 538.06107944 -770.375 543.3125 C-773.04606526 545.47376142 -775.71027507 547.6434289 -778.375 549.8125 C-779.75246777 550.93245944 -781.13006972 552.05225388 -782.5078125 553.171875 C-783.1668457 553.70748047 -783.82587891 554.24308594 -784.50488281 554.79492188 C-786.16506801 556.14214266 -787.82799633 557.48585933 -789.4921875 558.828125 C-794.81553715 563.14109384 -799.97628828 567.58343642 -805.04296875 572.1953125 C-807.13323889 574.09301169 -809.24486115 575.95983415 -811.375 577.8125 C-814.28093245 580.34216629 -817.14647402 582.91137789 -820 585.5 C-825.76042872 590.69671704 -831.65690052 595.72745959 -837.56054688 600.75976562 C-839.34367402 602.28569252 -841.11840033 603.82080677 -842.890625 605.359375 C-849.13459262 610.77058034 -855.46019237 616.02751578 -861.984375 621.09790039 C-866.49882868 624.60851514 -870.94580917 628.19504397 -875.375 631.8125 C-882.08048949 637.28264067 -888.85453341 642.65688064 -895.67480469 647.98291016 C-897.92604879 649.74343218 -900.17111174 651.5117441 -902.41625977 653.2800293 C-904.76113379 655.12570882 -907.10907354 656.96746226 -909.45751953 658.80859375 C-910.78463705 659.84947024 -912.11109089 660.89119328 -913.43701172 661.93359375 C-924.14389587 670.34562521 -934.99530898 678.52848438 -945.98828125 686.5625 C-948.36326697 688.30389706 -950.72978036 690.05618425 -953.09375 691.8125 C-963.4998017 699.53753538 -974.03465683 707.05238333 -984.68164062 714.44140625 C-987.56703887 716.44591062 -990.44787701 718.45685308 -993.328125 720.46875 C-1002.00865961 726.52784849 -1010.68768532 732.57714268 -1019.51953125 738.4140625 C-1032.77883492 747.2294135 -1045.68194772 756.52941532 -1058.55322266 765.89794922 C-1104.83899742 799.57082413 -1153.22026461 830.02300931 -1202.375 859.3125 C-1202.98234985 859.674505 -1203.58969971 860.03651001 -1204.2154541 860.40948486 C-1220.4887414 870.10799659 -1236.79321562 879.75177875 -1253.14355469 889.31982422 C-1260.23069683 893.46728944 -1267.30880645 897.62943903 -1274.375 901.8125 C-1285.81410563 908.58234464 -1297.28284016 915.30131449 -1308.75331116 922.01780701 C-1313.06759705 924.54473338 -1317.37829528 927.07770165 -1321.6875 929.61328125 C-1338.17574326 939.31161215 -1354.7242825 948.89540639 -1371.375 958.3125 C-1371.95096924 958.63861267 -1372.52693848 958.96472534 -1373.12036133 959.30072021 C-1411.56568094 981.06072818 -1445.12039939 997.68911844 -1489.953125 997.68310547 C-1493.63066991 997.68750679 -1497.30703919 997.724005 -1500.984375 997.76171875 C-1503.34895429 997.76758346 -1505.71353919 997.77155516 -1508.078125 997.7734375 C-1509.7066037 997.79499405 -1509.7066037 997.79499405 -1511.36798096 997.81698608 C-1521.32824779 997.75778068 -1528.73106594 994.75833806 -1536.87890625 989.16796875 C-1541.6002822 983.31247639 -1539.82377467 971.61755434 -1539.375 964.3125 C-1537.31774114 946.57892864 -1527.37915338 933.24652923 -1515.99365234 920.19140625 C-1513.83618897 917.68705661 -1511.79693052 915.09501573 -1509.75 912.5 C-1506.00073376 907.89735599 -1501.9199336 903.73915389 -1497.68408203 899.59179688 C-1494.86256952 896.82557259 -1492.17605107 894.01699647 -1489.625 891 C-1486.80085947 887.68351536 -1483.71892925 884.89754163 -1480.3984375 882.0859375 C-1478.34691028 880.28788083 -1476.45980459 878.3967574 -1474.5625 876.4375 C-1470.67177623 872.48586471 -1466.46345916 869.04856629 -1462.140625 865.58203125 C-1459.58757679 863.48694508 -1457.16734055 861.31128449 -1454.75 859.0625 C-1448.41197767 853.30247342 -1441.57124154 848.22130526 -1434.72851562 843.08349609 C-1432.3588902 841.30037754 -1429.99907857 839.5048926 -1427.640625 837.70703125 C-1408.79353543 823.38855757 -1389.3140048 810.05785494 -1369.375 797.3125 C-1367.63407971 796.1940647 -1365.89319495 795.07557409 -1364.15234375 793.95703125 C-1342.18870097 779.88013285 -1319.89546377 766.37448405 -1297.43017578 753.11865234 C-1293.09000651 750.55284027 -1288.76093931 747.9688851 -1284.4375 745.375 C-1283.26755493 744.67346802 -1283.26755493 744.67346802 -1282.07397461 743.95776367 C-1277.278801 741.07583296 -1272.4990167 738.1693673 -1267.7265625 735.25 C-1253.10259073 726.3096735 -1238.39312192 717.58070779 -1223.375 709.3125 C-1222.33633789 708.73902832 -1221.29767578 708.16555664 -1220.22753906 707.57470703 C-1208.61028347 701.1798074 -1196.94462218 695.00827364 -1184.9375 689.375 C-1173.7095953 684.1165351 -1173.7095953 684.1165351 -1163.375 677.3125 C-1162.66859375 676.77109375 -1161.9621875 676.2296875 -1161.234375 675.671875 C-1147.29063777 663.43118964 -1144.73482972 643.85508426 -1140.99420166 626.67642212 C-1139.69325317 620.70739551 -1138.32792924 614.75554682 -1136.9296875 608.80859375 C-1136.72086945 607.92019806 -1136.51205139 607.03180237 -1136.29690552 606.1164856 C-1135.87083543 604.30436652 -1135.44469775 602.49226334 -1135.01849365 600.68017578 C-1129.43891715 576.89910306 -1124.11862222 553.06199374 -1118.97265625 529.18359375 C-1114.16837795 506.90609606 -1109.18339884 484.6904141 -1103.86254883 462.53053284 C-1102.31239982 456.06970051 -1100.8021848 449.60004752 -1099.3125 443.125 C-1099.08071045 442.11832275 -1098.8489209 441.11164551 -1098.61010742 440.07446289 C-1097.39073919 434.76655087 -1096.17973752 429.45676074 -1094.97306824 424.14595032 C-1094.30056666 421.18641841 -1093.62726431 418.22706916 -1092.9536438 415.26779175 C-1092.60939345 413.75525182 -1092.26537917 412.24265815 -1091.92160034 410.73001099 C-1089.92987342 401.97313218 -1087.88297329 393.23501991 -1085.7277832 384.51660156 C-1076.71137172 347.99665031 -1070.19612839 310.97124518 -1064.23574829 273.84794617 C-1063.16099181 267.15439975 -1062.07452276 260.46325015 -1060.953125 253.77734375 C-1060.83988892 253.10195557 -1060.72665283 252.42656738 -1060.60998535 251.73071289 C-1060.08375437 248.5962315 -1059.55497783 245.46219883 -1059.0234375 242.32861328 C-1058.83523438 241.21083496 -1058.64703125 240.09305664 -1058.453125 238.94140625 C-1058.26814453 237.85875488 -1058.08316406 236.77610352 -1057.89257812 235.66064453 C-1057.52842075 233.30495854 -1057.22524405 230.93943856 -1056.96679688 228.56982422 C-1055.77925328 218.02139921 -1055.77925328 218.02139921 -1053.42578125 214.4609375 C-1048.88669328 211.26439668 -1044.96755946 211.65436055 -1039.5625 211.9375 C-1038.58345703 211.96457031 -1037.60441406 211.99164062 -1036.59570312 212.01953125 C-1034.18653379 212.09004352 -1031.78191181 212.18851432 -1029.375 212.3125 C-1028.06661593 217.32119875 -1028.19560716 222.32585061 -1028.171875 227.46484375 C-1028.16490601 228.46439087 -1028.15793701 229.46393799 -1028.15075684 230.49377441 C-1028.13328517 233.745892 -1028.12702499 236.99783728 -1028.125 240.25 C-1028.12399292 241.35795929 -1028.12298584 242.46591858 -1028.12194824 243.60745239 C-1028.13288697 261.37821889 -1028.88449159 278.69809509 -1031.375 296.3125 C-1031.53548828 297.48329102 -1031.69597656 298.65408203 -1031.86132812 299.86035156 C-1033.35477101 310.61021198 -1034.90050597 321.35202389 -1037.53515625 331.890625 C-1038.70480688 336.6562713 -1039.71886675 341.45276592 -1040.75 346.25 C-1047.72616599 378.42707297 -1047.72616599 378.42707297 -1051.49780273 391.61523438 C-1053.3272 398.02994818 -1054.94732421 404.48809369 -1056.5 410.97509766 C-1057.61770694 415.5644409 -1058.8975988 420.06966667 -1060.30859375 424.578125 C-1062.3905467 431.24905126 -1064.16108722 437.9765228 -1065.875 444.75 C-1067.58205374 451.4729856 -1069.3172977 458.17606314 -1071.2578125 464.8359375 C-1073.99542685 474.32866136 -1076.36221204 483.91441086 -1078.75 493.5 C-1078.99310913 494.47326233 -1079.23621826 495.44652466 -1079.48669434 496.44927979 C-1082.85296763 509.94065035 -1086.06048108 523.44772719 -1089 537.0390625 C-1090.18987096 542.52931968 -1091.47016666 547.99490029 -1092.76928711 553.46020508 C-1097.16968761 571.98457293 -1101.11057156 590.60209788 -1105.04296875 609.23046875 C-1105.24018524 610.16305008 -1105.43740173 611.09563141 -1105.64059448 612.05647278 C-1106.60441048 616.62243921 -1107.55658418 621.19029435 -1108.48583984 625.76342773 C-1108.66303055 626.6273262 -1108.84022125 627.49122467 -1109.02278137 628.38130188 C-1109.35285809 629.99279857 -1109.67892767 631.60512384 -1110.00004578 633.21842957 C-1111.11859764 638.65517726 -1112.76963669 643.38091945 -1115.375 648.3125 C-1104.37421184 642.88395432 -1093.48183513 637.26232697 -1082.61328125 631.57421875 C-1073.99614391 627.06463351 -1065.35975865 622.59225514 -1056.72314453 618.12011719 C-1052.10438699 615.72828552 -1047.48805405 613.33186964 -1042.8737793 610.93139648 C-1025.54718348 601.92850689 -1008.13757128 593.09982553 -990.67260742 584.36865234 C-987.76268523 582.913732 -984.85420671 581.45598696 -981.94702148 579.99560547 C-963.85650365 570.90880926 -945.68420526 562.08803692 -927.28079224 553.6505127 C-923.32955324 551.83110941 -919.39658278 549.97475482 -915.46875 548.10546875 C-914.1986861 547.50203799 -912.92858601 546.89868337 -911.65844727 546.29541016 C-911.04365509 546.00337708 -910.42886292 545.71134399 -909.79544067 545.41046143 C-871.65805657 527.32991482 -832.84344564 510.77237722 -793.59814453 495.25146484 C-748.13269844 477.27042211 -715.15556665 456.30127585 -680.62817383 421.69604492 C-678.06556177 419.1277059 -675.49844168 416.56392692 -672.92998791 414.00143147 C-670.92483928 411.99992083 -668.92210829 409.99600461 -666.92006874 407.99138451 C-665.5218004 406.59214171 -664.12154848 405.19488199 -662.72123718 403.79768372 C-658.26242683 399.3225622 -653.92973076 394.79809794 -649.82182312 389.99743652 C-647.61826078 387.43121912 -645.3054322 384.97505109 -643 382.5 C-638.75284617 377.90363575 -634.74657005 373.16524695 -630.81640625 368.29296875 C-624.16636985 360.17460431 -617.22364056 352.29041352 -610.125 344.5625 C-606.1177625 340.19331847 -602.36852731 335.66499791 -598.6484375 331.05078125 C-596.3480353 328.2800219 -593.94978528 325.639122 -591.5 323 C-586.2337826 317.26911635 -581.46503361 311.22590596 -576.72753906 305.05908203 C-575.42599889 303.3783567 -574.10394725 301.71643513 -572.7734375 300.05859375 C-553.01972523 275.27341882 -541.37554957 245.22383937 -531.4375 215.4375 C-530.77352879 213.47240527 -530.10881718 211.50756056 -529.44335938 209.54296875 C-525.70220068 198.49222807 -525.70220068 198.49222807 -522.375 187.3125 C-524.33904835 186.1099297 -526.30335576 184.90778696 -528.26806641 183.70629883 C-529.93003473 182.68927099 -531.5911613 181.67086638 -533.25146484 180.65112305 C-537.46379772 178.06863578 -541.69682557 175.55399311 -546 173.125 C-552.68324012 169.11967302 -558.62781517 163.74605895 -561.375 156.3125 C-562.0625 153.5 -562.0625 153.5 -562.375 150.3125 C-562.5090625 149.62027344 -562.643125 148.92804688 -562.78125 148.21484375 C-563.1000956 145.63308007 -563.07344991 143.82605738 -562.375 141.3125 C-560.01142721 138.51353222 -557.19208353 136.5554522 -554.16162109 134.52099609 C-552.05693316 133.09735503 -549.99219232 131.62316317 -547.92578125 130.14453125 C-543.76216478 127.17151487 -539.57564581 124.23290719 -535.375 121.3125 C-547.31484031 99.16665758 -580.23168678 86.7421163 -603.08032227 79.80981445 C-651.0492198 66.0117276 -702.23970252 69.2500057 -751.375 73.3125 C-752.55334412 73.40727631 -752.55334412 73.40727631 -753.75549316 73.50396729 C-795.51866882 76.87262104 -837.46398276 84.39322111 -878.375 93.3125 C-879.83636852 93.62770702 -881.29779789 93.94263199 -882.75927734 94.25732422 C-898.29477201 97.60904464 -913.81052584 100.99077003 -929.14453125 105.18359375 C-933.73555889 106.43160895 -938.36501408 107.49196028 -943 108.5625 C-957.27137762 111.89466155 -971.38415939 115.84866551 -985.49737549 119.78839111 C-987.19959594 120.26353876 -988.90226292 120.73708602 -990.60498047 121.21044922 C-1009.27349835 126.42890042 -1027.67410978 132.49914769 -1046.08270264 138.5581665 C-1048.32320577 139.29545591 -1050.56414918 140.03139331 -1052.80517578 140.76708984 C-1056.25227207 141.89947178 -1059.6979071 143.03618966 -1063.14227295 144.17684937 C-1064.99752338 144.79099086 -1066.85348557 145.40298092 -1068.70947266 146.01489258 C-1074.61326045 147.98099942 -1080.42761898 150.06200459 -1086.18676758 152.41894531 C-1089.22481144 153.65951661 -1092.29795491 154.79759466 -1095.375 155.9375 C-1098.37615787 157.05941793 -1101.37569441 158.1856406 -1104.375 159.3125 C-1105.28781738 159.65522949 -1106.20063477 159.99795898 -1107.14111328 160.35107422 C-1154.89355537 178.3400619 -1202.36002864 198.91797212 -1246.88818359 223.92431641 C-1249.40100592 225.32701695 -1251.92626989 226.70417887 -1254.45703125 228.07421875 C-1280.65514 242.27350264 -1306.06737004 258.07111201 -1330.375 275.3125 C-1331.0973584 275.82377441 -1331.8197168 276.33504883 -1332.56396484 276.86181641 C-1342.72307508 284.07255499 -1352.67671993 291.49268806 -1362.375 299.3125 C-1363.31601563 300.07046875 -1364.25703125 300.8284375 -1365.2265625 301.609375 C-1367.9563472 303.82781674 -1370.66961986 306.06436721 -1373.375 308.3125 C-1374.13828613 308.94623535 -1374.13828613 308.94623535 -1374.91699219 309.59277344 C-1382.43256009 315.84737068 -1389.73182682 322.29261304 -1396.89550781 328.94628906 C-1398.85770693 330.75824719 -1400.84195699 332.54564274 -1402.82324219 334.33666992 C-1411.85986234 342.53332883 -1420.75507962 350.99877326 -1428.65234375 360.3125 C-1430.74872279 362.74639131 -1432.9389738 365.08384425 -1435.125 367.4375 C-1440.43517401 373.26338135 -1445.29727553 379.38266379 -1450.08740234 385.63964844 C-1451.24862109 387.14830806 -1452.4297845 388.64156528 -1453.61328125 390.1328125 C-1467.27893646 407.67081973 -1478.47176567 426.02362239 -1481.375 448.3125 C-1481.48424805 449.11800293 -1481.59349609 449.92350586 -1481.70605469 450.75341797 C-1483.18604503 460.58984447 -1483.18604503 460.58984447 -1481.1171875 470.046875 C-1479.34581263 472.09626835 -1477.51733201 473.6619874 -1475.375 475.3125 C-1474.32526324 476.47191075 -1473.2835911 477.63867293 -1472.25 478.8125 C-1467.34633827 483.60670499 -1461.47316013 487.22857946 -1455.375 490.3125 C-1454.5924585 490.75440674 -1453.80991699 491.19631348 -1453.00366211 491.65161133 C-1442.19125666 496.8542332 -1430.63422416 495.95837426 -1418.89672852 495.79956055 C-1415.24134182 495.7507194 -1411.58732255 495.73809802 -1407.93164062 495.73242188 C-1389.82964657 495.64638709 -1371.73338462 494.877923 -1353.77850342 492.46333313 C-1342.14250672 490.89878521 -1330.53427398 491.09268825 -1318.8125 491.1875 C-1316.62565518 491.19755893 -1314.43880584 491.20667959 -1312.25195312 491.21484375 C-1306.9595211 491.2366055 -1301.66731231 491.27097162 -1296.375 491.3125 C-1296.375 495.6025 -1296.375 499.8925 -1296.375 504.3125 C-1301.6591162 505.94755853 -1306.84474373 506.95137044 -1312.3125 507.75 C-1318.12628092 508.63295093 -1323.91318439 509.56927914 -1329.6875 510.6875 C-1349.2040247 514.41841607 -1368.80344129 517.46972362 -1388.5 520.0625 C-1389.70888885 520.22259552 -1389.70888885 520.22259552 -1390.94219971 520.38592529 C-1434.19602415 526.08626448 -1465.33427397 522.37526323 -1501.20703125 496.25 C-1511.93729494 486.66043101 -1518.75698598 471.95357783 -1519.58984375 457.61328125 C-1519.51502059 452.69221983 -1518.31252306 448.20166335 -1516.9375 443.5 C-1516.67163086 442.58782715 -1516.40576172 441.6756543 -1516.13183594 440.73583984 C-1508.42305905 415.47497244 -1492.98127995 394.28298817 -1475.078125 375.2265625 C-1473.07883495 373.07125849 -1471.15058743 370.89820341 -1469.23706055 368.66967773 C-1465.29523229 364.15750169 -1461.11996585 359.91317783 -1456.87890625 355.68359375 C-1456.08653061 354.89026138 -1455.29415497 354.09692902 -1454.47776794 353.27955627 C-1452.81249717 351.61360919 -1451.14597971 349.94890744 -1449.47827148 348.28540039 C-1446.94465378 345.75713866 -1444.41641833 343.22358339 -1441.88867188 340.68945312 C-1440.26073717 339.0621793 -1438.63249225 337.43521575 -1437.00390625 335.80859375 C-1436.25782608 335.06048935 -1435.51174591 334.31238495 -1434.74305725 333.54161072 C-1430.65185892 329.46838432 -1426.47353444 325.5581551 -1422.09515381 321.79454041 C-1419.69972814 319.73070308 -1417.38485961 317.58288353 -1415.0625 315.4375 C-1409.66023429 310.51625795 -1404.06194329 305.8985094 -1398.375 301.3125 C-1397.19173451 300.33842134 -1396.00949947 299.36309 -1394.828125 298.38671875 C-1384.26410488 289.68177162 -1373.38644781 281.44125464 -1362.375 273.3125 C-1361.64087891 272.76625977 -1360.90675781 272.22001953 -1360.15039062 271.65722656 C-1346.62391336 261.60209136 -1332.54146556 252.43070095 -1318.375 243.3125 C-1317.5176123 242.75675293 -1316.66022461 242.20100586 -1315.77685547 241.62841797 C-1302.942784 233.31253082 -1289.75228813 225.66461078 -1276.47094727 218.09008789 C-1273.30174525 216.27043961 -1270.15027081 214.42250875 -1267 212.5703125 C-1262.99213781 210.22794481 -1258.99021659 208.02077295 -1254.8125 206 C-1250.26144812 203.77297044 -1245.76536813 201.46846109 -1241.30078125 199.07275391 C-1195.1539923 174.37858434 -1146.57832783 154.03852459 -1097.375 136.3125 C-1095.16918767 135.50934294 -1092.96345971 134.70595415 -1090.7578125 133.90234375 C-1060.56018904 122.95679306 -1030.04015118 112.64315071 -999.1171875 103.9375 C-995.05321894 102.79295954 -990.99766661 101.62249746 -986.9453125 100.4375 C-972.88576156 96.34256362 -958.78739788 92.56645739 -944.5612793 89.10205078 C-938.44964703 87.60739009 -932.37929399 86.05083288 -926.33984375 84.28515625 C-919.22446205 82.22149569 -912.04788776 80.58266817 -904.8125 79 C-902.06696287 78.39264924 -899.32235016 77.78121843 -896.578125 77.16796875 C-895.88881393 77.01403656 -895.19950287 76.86010437 -894.48930359 76.70150757 C-887.65687909 75.16692114 -880.86099272 73.49029532 -874.0625 71.8125 C-859.21972141 68.1755548 -844.27817109 65.10271912 -829.296875 62.1015625 C-825.76799751 61.39372534 -822.24298502 60.66813409 -818.71875 59.9375 C-790.07539218 54.02934003 -761.48576427 49.92830344 -732.375 47.3125 C-731.69481812 47.25084656 -731.01463623 47.18919312 -730.31384277 47.12567139 C-688.2235442 43.34726749 -642.49887719 42.55944538 -601.375 53.3125 C-600.199375 53.58707031 -599.02375 53.86164063 -597.8125 54.14453125 C-579.41529011 58.50274125 -561.55192307 64.39558091 -544.375 72.3125 C-543.44155762 72.73716553 -543.44155762 72.73716553 -542.48925781 73.17041016 C-533.26180951 77.45184393 -526.48800585 83.21987525 -519.375 90.3125 C-518.59898437 91.0859375 -517.82296875 91.859375 -517.0234375 92.65625 C-515.99089844 93.69265625 -515.99089844 93.69265625 -514.9375 94.75 C-513.99197266 95.69166016 -513.99197266 95.69166016 -513.02734375 96.65234375 C-511.66580346 98.02032158 -510.32933201 99.41320314 -509 100.8125 C-501.97649229 104.82593298 -492.53612082 101.71028986 -485.1875 99.8125 C-483.58757202 99.41309204 -483.58757202 99.41309204 -481.95532227 99.00561523 C-478.42540341 98.11990439 -474.90035079 97.21620667 -471.375 96.3125 C-469.46616839 95.83148622 -467.5573332 95.35048565 -465.64820862 94.87063599 C-462.36811824 94.0447252 -459.09032211 93.2098578 -455.8125 92.375 C-454.63341064 92.0759375 -453.45432129 91.776875 -452.23950195 91.46875 C-444.46771275 89.46353295 -436.77080298 87.26640907 -429.07421875 84.9921875 C-416.04126554 81.15370307 -402.91822447 77.71584999 -389.75 74.375 C-388.55932922 74.07190918 -387.36865845 73.76881836 -386.14190674 73.45654297 C-367.35930541 68.68671657 -348.5368187 64.33004751 -329.53160095 60.5483551 C-324.9819423 59.64276887 -320.4441179 58.69292252 -315.91015625 57.7109375 C-300.79883479 54.45411617 -285.64387724 51.77755497 -270.37280273 49.40380859 C-262.16287479 48.12337186 -254.03111296 46.67702032 -245.89013672 45.0065918 C-240.4927714 43.94083894 -235.06645158 43.11712567 -229.625 42.3125 C-227.54679905 42.00050546 -225.46867619 41.68799043 -223.390625 41.375 C-222.29403564 41.2102417 -221.19744629 41.0454834 -220.06762695 40.87573242 C-215.77045438 40.22028931 -211.4769091 39.54345309 -207.18359375 38.86328125 C-204.71821798 38.47338087 -202.25282231 38.08360669 -199.78741455 37.69390869 C-198.23020366 37.44770981 -196.67303121 37.20126754 -195.11590576 36.95452881 C-156.49397107 30.84797621 -117.63271438 26.41307823 -78.625 23.6875 C-55.74699999 22.07396304 -29.90966113 19.70118893 -12.65234375 2.6171875 C-8.78128064 -0.65565981 -4.85248564 -0.25152438 0 0 Z " fill="#0F0F0F" transform="translate(1569.375,363.6875)"/>
<path d="M0 0 C0.36618123 22.66104965 -16.52184086 40.34421375 -30.04150391 56.84667969 C-33.81706847 61.47806833 -37.44429185 66.19829456 -41 71 C-45.53009802 77.11723663 -50.24253615 83.04864186 -55.07421875 88.9296875 C-58.98790262 93.7099728 -62.76975405 98.57555881 -66.5 103.5 C-71.31897797 109.85962587 -76.27596115 116.08461948 -81.33154297 122.25732422 C-85.50428726 127.36156374 -89.54320736 132.55257054 -93.54296875 137.79296875 C-97.51045194 142.98760744 -101.57172852 148.10912352 -105.61767578 153.24267578 C-106.97656619 154.97020902 -108.33083709 156.70125465 -109.68359375 158.43359375 C-113.9994556 163.95485006 -118.34761674 169.44246264 -122.78930664 174.86328125 C-128.15506012 181.41250487 -133.35662618 188.04813739 -138.40112305 194.84790039 C-142.27538232 200.06302902 -146.24658691 205.1960208 -150.25 210.3125 C-155.81877582 217.44286646 -161.2228498 224.66028631 -166.44824219 232.04736328 C-179.44254554 250.40132306 -179.44254554 250.40132306 -187 258 C-187.72960938 258.76441406 -188.45921875 259.52882813 -189.2109375 260.31640625 C-197.53677037 268.49010597 -208.59329717 274.40046498 -220 277 C-220.66 276.67 -221.32 276.34 -222 276 C-229.12315693 275.56403186 -234.90518458 276.78439381 -241.6875 278.875 C-242.59822266 279.14441406 -243.50894531 279.41382813 -244.44726562 279.69140625 C-246.19854157 280.21284644 -247.94608156 280.74705859 -249.68896484 281.29589844 C-251.61060799 281.88136419 -253.56311726 282.36432256 -255.51953125 282.8203125 C-256.33808594 283.20960938 -257.15664062 283.59890625 -258 284 C-258.28746094 284.97066406 -258.57492187 285.94132812 -258.87109375 286.94140625 C-260 290 -260 290 -263.47265625 291.65234375 C-264.99472454 292.10793436 -266.52568465 292.53444506 -268.0625 292.9375 C-268.86858704 293.16337296 -269.67467407 293.38924591 -270.50518799 293.6219635 C-275.1661878 294.92775434 -279.82783223 296.23114884 -284.4909668 297.52929688 C-300.93796551 302.11310791 -317.34719947 306.82328255 -333.75 311.5625 C-338.80717169 313.02255129 -343.86450857 314.48202968 -348.921875 315.94140625 C-350.13415268 316.29137665 -351.34643036 316.64134705 -352.59544373 317.00192261 C-359.94167271 319.12161925 -367.2914387 321.22846687 -374.64453125 323.32421875 C-401.83105299 331.07881999 -428.76679138 339.65243339 -455.14941406 349.82910156 C-457.40682964 350.69254599 -459.67118251 351.53523849 -461.9375 352.375 C-462.94937378 352.76993652 -462.94937378 352.76993652 -463.98168945 353.17285156 C-469.14088789 355.06047162 -473.51255784 355.22529088 -479 355 C-478.34119908 346.61995395 -476.97227473 338.39509017 -475.5 330.125 C-475.3749408 329.41587463 -475.24988159 328.70674927 -475.12103271 327.97613525 C-471.50986082 307.56768778 -467.23717249 287.28578171 -463 267 C-468.28 265.68 -473.56 264.36 -479 263 C-479.25394531 264.62164063 -479.50789063 266.24328125 -479.76953125 267.9140625 C-481.14064376 276.12631744 -482.91187015 284.24285209 -484.6875 292.375 C-484.86163422 293.17670624 -485.03576843 293.97841248 -485.21517944 294.80441284 C-488.40980724 309.50763767 -491.71659514 324.18542557 -495.23901367 338.81396484 C-495.75567559 340.97708259 -496.25527919 343.14433176 -496.73950195 345.31494141 C-499.55296758 357.51749819 -506.62682942 365.11793786 -517 372 C-526.67451809 377.49458693 -536.70380242 381.50905166 -547.40429688 384.54736328 C-548.07525391 384.7379834 -548.74621094 384.92860352 -549.4375 385.125 C-550.12392578 385.3194873 -550.81035156 385.51397461 -551.51757812 385.71435547 C-560.32971296 388.28232065 -568.93165208 391.4762463 -577.55444336 394.60986328 C-578.71854736 395.03251465 -579.88265137 395.45516602 -581.08203125 395.890625 C-582.64787964 396.46345215 -582.64787964 396.46345215 -584.24536133 397.04785156 C-589.24308236 398.77532759 -593.6566798 399.18268613 -598.9375 399.1875 C-599.64068359 399.19974609 -600.34386719 399.21199219 -601.06835938 399.22460938 C-605.16682735 399.23613272 -608.31561442 398.82416742 -612 397 C-610.70722863 394.15268674 -609.35425174 392.11038088 -607.13012695 389.91894531 C-606.26331047 389.05719696 -606.26331047 389.05719696 -605.37898254 388.17803955 C-604.75505112 387.56756775 -604.13111969 386.95709595 -603.48828125 386.328125 C-602.51860664 385.36625275 -602.51860664 385.36625275 -601.52934265 384.38494873 C-599.46175974 382.33515238 -597.38763776 380.29214555 -595.3125 378.25 C-593.25603754 376.22133738 -591.20111681 374.1911744 -589.1492157 372.15789795 C-587.87423441 370.89497334 -586.59659246 369.6347266 -585.31575012 368.37774658 C-581.55906497 364.66239061 -578.01604167 360.81952722 -574.57118225 356.81300354 C-572.16348564 354.03473738 -569.6398881 351.36832585 -567.125 348.6875 C-562.58973456 343.81760188 -558.31319449 338.80345476 -554.14453125 333.61328125 C-552.00125044 331.00152377 -549.7761967 328.49634698 -547.5 326 C-543.709585 321.8311959 -540.11220579 317.54515002 -536.5703125 313.1640625 C-534.64819539 310.7871519 -532.70034731 308.43324057 -530.7421875 306.0859375 C-523.41226454 297.28615114 -516.35281175 288.34698235 -509.56689453 279.12158203 C-507.89854952 276.86263561 -506.21399816 274.61639716 -504.52734375 272.37109375 C-496.89855949 262.17891309 -489.71697557 251.81416196 -483 241 C-482.53416504 240.25766113 -482.06833008 239.51532227 -481.58837891 238.75048828 C-465.85860593 213.59455442 -452.42096214 186.78923238 -442 159 C-429.46 159 -416.92 159 -404 159 C-403.01 155.04 -403.01 155.04 -402 151 C-402.7206665 150.86948242 -403.44133301 150.73896484 -404.18383789 150.60449219 C-407.47935495 149.99977129 -410.77078617 149.37507836 -414.0625 148.75 C-415.7630957 148.44255859 -415.7630957 148.44255859 -417.49804688 148.12890625 C-429.81352744 145.75916363 -429.81352744 145.75916363 -434 142 C-435.37447723 138.2574286 -435.80887705 134.51074248 -436.25 130.5625 C-436.47393433 128.89634644 -436.47393433 128.89634644 -436.70239258 127.1965332 C-437.0082102 124.90966978 -437.301542 122.6211028 -437.58251953 120.33105469 C-437.96912873 117.24632026 -438.40527967 114.17520186 -438.87109375 111.1015625 C-440.23721686 102.08403216 -441.40843411 93.10678201 -442 84 C-436.05829025 81.23217679 -430.11057226 78.91635579 -423.86328125 76.94140625 C-423.02137741 76.67037582 -422.17947357 76.3993454 -421.3120575 76.12010193 C-418.64702068 75.26286145 -415.97993906 74.41223284 -413.3125 73.5625 C-409.80762598 72.44180214 -406.30382724 71.31780451 -402.80078125 70.19140625 C-401.95054886 69.91866379 -401.10031647 69.64592133 -400.22431946 69.36491394 C-395.28805494 67.77170172 -390.40207362 66.08774784 -385.53125 64.3046875 C-379.16737132 61.99847493 -372.75026773 60.20619137 -366.1875 58.5625 C-365.17236328 58.30146484 -364.15722656 58.04042969 -363.11132812 57.77148438 C-360.14315011 57.01475033 -357.17168551 56.27298904 -354.19729614 55.54107666 C-352.6524801 55.16067099 -351.1081494 54.7782916 -349.56417847 54.39447021 C-329.90043438 49.51892887 -310.10388839 45.28876075 -290.29406738 41.05718994 C-285.96965888 40.13278763 -281.64599504 39.20491617 -277.32226562 38.27734375 C-269.82722152 36.66988268 -262.33153119 35.06546192 -254.83551216 33.46255398 C-249.90598903 32.40826651 -244.97696687 31.35168189 -240.04833984 30.29321289 C-177.40678202 16.84048789 -177.40678202 16.84048789 -147.83203125 12.56494141 C-143.8828855 11.98273427 -139.94141486 11.36231676 -136 10.73046875 C-106.83510516 6.07891028 -77.66595536 3.06619114 -48.1875 1.25 C-47.1566629 1.1848822 -46.12582581 1.1197644 -45.06375122 1.05267334 C-30.02948214 0.11844627 -15.06184915 -0.16422518 0 0 Z " fill="#FBFBFB" transform="translate(1519,405)"/>
<path d="M0 0 C6.51615584 0.00865041 13.0322338 0.00249601 19.54838473 -0.00725704 C25.95723966 -0.01644925 32.36606194 -0.01755928 38.77492136 -0.01237971 C42.55133576 -0.00932969 46.32769861 -0.00865056 50.10410929 -0.01545268 C65.17701274 -0.03884291 80.19255105 0.18467301 95.23630953 1.16827077 C96.46197162 1.24833237 97.68763371 1.32839398 98.95043707 1.4108817 C130.86971833 3.72619274 164.87880811 20.21845332 188.75217867 41.25713795 C189.33354586 41.73538014 189.91491304 42.21362233 190.51389742 42.7063567 C192.73058642 44.82587578 193.71048623 46.67251729 193.92795992 49.7219817 C193.52189679 56.15582636 191.84644598 62.1850799 189.75217867 68.25713795 C188.06378672 68.1685966 186.37642172 68.06041709 184.68967867 67.94463795 C183.74995211 67.88663014 182.81022554 67.82862233 181.84202242 67.7688567 C177.9888743 67.13072471 175.15881721 66.19463861 171.75217867 64.25713795 C169.93186617 61.0422942 169.93186617 61.0422942 168.62717867 57.31963795 C166.75089732 52.04051499 165.39045843 49.42060826 160.75217867 46.25713795 C157.61623295 45.05063733 157.61623295 45.05063733 154.20920992 44.22588795 C152.96735933 43.89459889 151.72550875 43.56330983 150.44602633 43.2219817 C149.2270566 42.90358327 148.00808687 42.58518483 146.75217867 42.25713795 C144.75460491 41.68940312 142.75842744 41.11672504 140.76389742 40.53838795 C119.65955568 34.5618777 98.35496343 29.41231644 77.03384066 24.27322072 C72.75598934 23.24025526 68.48293757 22.19753347 64.2253232 21.08379811 C55.612564 18.83438497 47.08637935 17.23401765 38.25217867 16.13213795 C36.51581148 15.89817311 36.51581148 15.89817311 34.74436617 15.6594817 C30.75174272 15.14223605 26.75548108 14.68191967 22.75217867 14.25713795 C21.91448946 14.16779988 21.07680025 14.07846181 20.21372652 13.98641652 C3.65145545 12.2791329 -12.82638836 11.8926732 -29.46896315 11.93907994 C-31.53319964 11.94473487 -33.59742783 11.94754776 -35.66167021 11.95016164 C-85.75916619 12.04209705 -134.98379648 17.33694211 -184.24782133 26.25713795 C-184.98133818 26.38948842 -185.71485502 26.52183888 -186.47059965 26.65819997 C-208.97038791 30.7304064 -231.21460603 35.66047136 -253.42506742 41.08233327 C-257.52604115 42.08317173 -261.62989503 43.0715805 -265.73489714 44.05575246 C-269.0334233 44.84678378 -272.331163 45.64105691 -275.62871122 46.43615407 C-277.16978461 46.8075712 -278.71101589 47.178334 -280.25242949 47.54833668 C-299.25528454 52.11736677 -317.99027453 57.59191845 -336.74782133 63.06963795 C-337.80375486 63.37772389 -338.8596884 63.68580983 -339.94761992 64.0032317 C-357.17402364 69.0321437 -374.38250575 74.11133116 -391.46461821 79.61455983 C-402.10259423 83.02843735 -412.79156084 86.14997418 -423.57570219 89.0678069 C-427.95556592 90.25313665 -432.33185665 91.45155347 -436.70875883 92.64776295 C-437.55432341 92.878485 -438.39988798 93.10920705 -439.27107573 93.34692067 C-447.80869294 95.67816419 -456.32334214 98.08426012 -464.82204008 100.55352467 C-467.48341723 101.32547404 -470.14685252 102.09009445 -472.81032133 102.8547942 C-500.86091281 110.93625829 -528.61521273 119.85767919 -556.24782133 129.25713795 C-556.95916227 129.4984142 -557.67050322 129.73969044 -558.40339994 129.98827809 C-589.85744497 140.66302356 -620.92424098 152.68582882 -651.24782133 166.25713795 C-652.15806059 166.66222584 -653.06829985 167.06731374 -654.00612211 167.48467702 C-682.21032694 180.09604611 -710.23520201 193.60247639 -736.64088774 209.67803639 C-739.23970722 211.25222298 -741.85531886 212.79390006 -744.47829008 214.32745045 C-756.09247435 221.14370189 -767.24813109 228.4919712 -778.24782133 236.25713795 C-779.01368559 236.79483815 -779.77954985 237.33253834 -780.56862211 237.88653249 C-791.49772111 245.57875004 -802.00498485 253.67393402 -812.24782133 262.25713795 C-812.84546293 262.75568288 -813.44310453 263.2542278 -814.05885649 263.76788014 C-830.39354276 277.43191051 -846.49385495 291.95942725 -860.24782133 308.25713795 C-861.04317289 309.16334889 -861.83852446 310.06955983 -862.65797758 311.0032317 C-870.4827935 319.97440399 -877.46300109 329.48253948 -884.24782133 339.25713795 C-884.98331205 340.30925465 -884.98331205 340.30925465 -885.73366117 341.38262624 C-909.03530854 374.99642439 -919.06538137 413.77875295 -913.47706938 454.48540944 C-908.9925069 478.93113519 -893.1375335 502.59115637 -877.24782133 521.25713795 C-876.35928435 522.32962721 -875.47130387 523.40257767 -874.58375883 524.47588795 C-865.02809854 535.93208609 -854.82962326 546.80672797 -843.04079008 555.99932545 C-840.61459375 557.96064221 -838.30861745 559.98788631 -835.99391508 562.07745045 C-831.5424219 566.05530218 -826.91381308 569.69934494 -822.12282133 573.25713795 C-821.27026762 573.8923235 -820.41771391 574.52750905 -819.53932524 575.18194264 C-804.27346503 586.48282377 -788.72546045 597.19976214 -772.42067289 606.94170827 C-768.69959466 609.19442395 -765.0402456 611.54348493 -761.37282133 613.88213795 C-753.57762089 618.83383689 -745.70792842 623.65857032 -737.81032133 628.44463795 C-737.22143126 628.80158742 -736.63254118 629.15853688 -736.02580595 629.52630299 C-730.5305696 632.85613752 -725.03203256 636.18050028 -719.53102446 639.5007903 C-695.02565001 654.29272913 -695.02565001 654.29272913 -684.549335 661.15923756 C-678.54410327 665.09094381 -672.46429626 668.89818384 -666.37282133 672.69463795 C-659.15149698 677.19526003 -651.93683008 681.70505113 -644.74782133 686.25713795 C-637.66101193 690.7435058 -630.55195657 695.19325094 -623.43532133 699.63213795 C-613.75499142 705.67241076 -604.11730292 711.77679211 -594.49782133 717.91338795 C-589.48805249 721.10813009 -584.46295668 724.27811785 -579.43532133 727.44463795 C-571.35222473 732.54030259 -563.3218199 737.71364893 -555.30983305 742.92022389 C-553.29354834 744.22749065 -551.2734057 745.52854332 -549.25172758 746.82745045 C-498.43084178 779.50724106 -498.43084178 779.50724106 -476.24782133 798.25713795 C-475.32561796 799.02380788 -475.32561796 799.02380788 -474.38478422 799.80596608 C-464.95455078 807.7235085 -459.00121332 817.53367965 -453.24782133 828.25713795 C-452.66000883 829.34961842 -452.66000883 829.34961842 -452.06032133 830.4641692 C-448.03469829 839.34763544 -449.13736428 853.8957533 -451.38844633 863.1282317 C-453.04645707 867.23557649 -455.80192114 869.58288379 -459.24782133 872.25713795 C-460.15661039 872.96612233 -461.06539946 873.6751067 -462.00172758 874.40557545 C-503.36608217 904.74288683 -560.91199643 901.8497692 -609.90919828 904.89971608 C-610.57563006 904.94134562 -611.24206184 904.98297517 -611.92868853 905.02586621 C-615.08287989 905.22288261 -618.23714773 905.4183399 -621.39163542 905.61056203 C-626.62913221 905.93560685 -631.85314465 906.29713038 -637.07692289 906.79864186 C-644.58455557 907.50585975 -652.08717191 907.50050523 -659.62282133 907.50713795 C-660.41818296 907.50814503 -661.2135446 907.50915211 -662.0330081 907.51018971 C-696.17957795 907.48100424 -724.08261751 898.95454744 -749.25954008 875.2610442 C-755.75081676 868.71875552 -757.77027988 860.8843832 -758.53688383 851.85088795 C-758.19456019 847.59497242 -756.83336268 844.40980854 -754.87282133 840.69463795 C-754.33914946 839.65907765 -754.33914946 839.65907765 -753.79469633 838.60259694 C-736.65889029 806.31415895 -702.96965473 782.70143143 -668.31032133 771.9797942 C-664.63985901 770.96659367 -660.96268338 770.09116881 -657.24782133 769.25713795 C-656.14180571 768.95936452 -655.03579008 768.66159108 -653.89625883 768.3547942 C-631.7667984 762.93482478 -606.93206993 764.43132969 -587.24782133 776.25713795 C-585.55411492 777.55595055 -583.87751839 778.87886256 -582.24782133 780.25713795 C-582.80836794 783.62041759 -583.66623171 786.24826014 -585.24782133 789.25713795 C-586.09485624 789.2116985 -586.09485624 789.2116985 -586.95900297 789.16534108 C-599.11005231 788.53543921 -611.25931882 788.13526541 -623.42674589 788.07989186 C-625.38350535 788.06990248 -627.34020875 788.05036869 -629.2968936 788.03057545 C-644.06629119 788.01516558 -656.64198446 790.7735259 -670.24782133 796.25713795 C-671.20817289 796.64047292 -672.16852446 797.02380788 -673.15797758 797.41875905 C-686.33403946 802.7762191 -697.45253612 807.86188387 -706.24782133 819.25713795 C-706.73025297 819.86670338 -707.21268461 820.47626881 -707.70973539 821.10430592 C-710.65384762 824.85610335 -713.44762203 828.68331545 -716.12916899 832.62676686 C-717.05658129 833.97841666 -718.02774892 835.29992362 -719.00954008 836.6126067 C-723.7290348 843.60394989 -723.14490854 852.10831599 -723.24782133 860.25713795 C-722.25395414 860.64772389 -722.25395414 860.64772389 -721.24000883 861.04620045 C-719.00118832 861.95225053 -716.78391957 862.88376791 -714.56813383 863.84307545 C-691.0955319 873.92081815 -667.91857177 876.68313318 -642.56032133 876.94463795 C-640.31446379 876.9763899 -638.06861425 877.00871168 -635.8227725 877.04156178 C-628.63129279 877.13915198 -621.43972109 877.2003299 -614.24782133 877.25713795 C-613.00452055 877.26809499 -611.76121977 877.27905202 -610.48024321 877.29034108 C-602.89582601 877.35663162 -595.31158234 877.40532375 -587.72691679 877.43136281 C-585.32669728 877.44005296 -582.92648575 877.45148191 -580.52629423 877.46596974 C-547.43844555 877.64298834 -514.77206584 874.90400544 -483.24782133 864.25713795 C-483.16615284 861.25657712 -483.10700583 858.25828406 -483.06032133 855.25713795 C-483.02261625 853.99836842 -483.02261625 853.99836842 -482.98414946 852.7141692 C-482.86512187 842.47779699 -486.65569152 835.00471487 -493.24782133 827.25713795 C-496.19945305 824.51061963 -499.33110702 822.05553551 -502.52858305 819.60284108 C-505.22578214 817.49165656 -507.84521887 815.28860354 -510.47633696 813.09600514 C-517.35793909 807.36742123 -524.31498093 801.79361191 -531.54518461 796.50762624 C-533.50462102 795.06853342 -535.45236796 793.61428799 -537.40016508 792.1594817 C-571.96430247 766.41219752 -608.24972709 742.94525798 -644.65162992 719.90069264 C-647.13920554 718.32589868 -649.62525867 716.74872602 -652.11110258 715.17120045 C-661.17902174 709.42362416 -670.28740858 703.7449306 -679.4231143 698.10577077 C-685.11684488 694.58760826 -690.78438231 691.03105536 -696.43532133 687.44463795 C-703.93440669 682.68687166 -711.48907057 678.02408187 -719.06032133 673.38213795 C-728.18280024 667.78742519 -737.24582091 662.11043847 -746.25954008 656.34234303 C-752.49112699 652.35947202 -758.7630126 648.44764488 -765.06032133 644.56963795 C-771.94389512 640.32667727 -778.77882306 636.02202606 -785.55202055 631.60503834 C-789.57305101 628.98373368 -793.60873922 626.38883452 -797.66579008 623.8235442 C-864.96984018 581.20600656 -923.57878498 543.2821353 -946.24782133 463.25713795 C-946.44810942 462.56265553 -946.6483975 461.86817311 -946.85475492 461.15264577 C-956.62041687 425.20420908 -945.38585859 386.88640594 -927.60182524 355.58184499 C-920.21912656 342.90639297 -911.18864042 331.42700768 -902.23317289 319.83770436 C-900.35638108 317.39824427 -898.4974972 314.94649169 -896.64625883 312.4876067 C-891.40537747 305.53674159 -886.13926752 298.74611251 -880.20485258 292.3626067 C-878.43007989 290.45322052 -876.74227125 288.49793228 -875.06032133 286.50713795 C-867.03789263 277.33067079 -858.30287351 268.80650887 -848.74000883 261.2532317 C-846.42171481 259.39641627 -844.24248573 257.4579934 -842.06032133 255.44463795 C-773.31975033 193.95263332 -676.21099555 153.35650652 -539.04469633 99.2610442 C-536.08687855 98.19936939 -533.13597692 97.11979951 -530.18532133 96.03838795 C-515.57018739 90.71251545 -500.84958539 85.76274619 -486.06032133 80.94463795 C-485.15206602 80.64813344 -484.24381071 80.35162892 -483.30803251 80.04613942 C-472.31114163 76.4615787 -461.28736269 73.01364767 -450.17277861 69.81197804 C-448.32203423 69.27852871 -446.47276058 68.73998486 -444.62355375 68.20122975 C-431.50676102 64.38279182 -418.38388936 60.66774397 -405.10329008 57.46026295 C-399.09944187 55.99791243 -393.13808153 54.37314129 -387.17003202 52.77239674 C-357.76700234 44.89075842 -328.20130451 37.9758243 -298.27125883 32.3938567 C-293.3835976 31.481629 -288.51405473 30.49832539 -283.64528227 29.49078053 C-254.33836482 23.46453959 -224.79644137 18.93747801 -195.15993071 14.8914153 C-181.81065065 13.06455809 -168.49535919 11.0838073 -155.18941069 8.96474904 C-103.46026568 0.74276382 -52.24612975 -0.07748649 0 0 Z " fill="#101010" transform="translate(2967.247821331024,28.742862045764923)"/>
<path d="M0 0 C0.16333542 9.52064042 -0.25244582 18.77795555 -1.25 28.25 C-1.4502478 30.19447021 -1.4502478 30.19447021 -1.65454102 32.17822266 C-2.87870654 43.77974965 -4.56411181 55.29581354 -6.47070312 66.80371094 C-7.02680486 70.16186774 -7.56870773 73.5221386 -8.109375 76.8828125 C-8.46795112 79.08867168 -8.8272982 81.2944057 -9.1875 83.5 C-9.35435303 84.52786621 -9.52120605 85.55573242 -9.69311523 86.61474609 C-9.84981689 87.55656738 -10.00651855 88.49838867 -10.16796875 89.46875 C-10.30485107 90.29826172 -10.4417334 91.12777344 -10.58276367 91.98242188 C-11 94 -11 94 -12 96 C-10.9790625 96.3403125 -10.9790625 96.3403125 -9.9375 96.6875 C-6.20385676 98.35572357 -3.27836579 100.55729608 0 103 C-1.50973609 107.11915649 -4.38038418 109.00370613 -7.875 111.375 C-8.48287354 111.7978125 -9.09074707 112.220625 -9.71704102 112.65625 C-11.06799685 113.595462 -12.42140883 114.5311479 -13.77685547 115.46386719 C-16.14412867 117.09958902 -18.49692271 118.75466656 -20.84765625 120.4140625 C-53.45760289 143.41428423 -87.29650922 164.44026052 -121.93408203 184.2421875 C-124.77331065 185.87002999 -127.60484622 187.51028134 -130.43359375 189.15625 C-142.60156468 196.21440836 -154.99458959 202.76429469 -167.5065918 209.18969727 C-170.88036395 210.93800396 -174.24095012 212.7093362 -177.5995636 214.48649597 C-188.47503454 220.23801287 -199.43133533 225.81567397 -210.4375 231.3125 C-211.35097198 231.76910004 -212.26444397 232.22570007 -213.20559692 232.69613647 C-227.47395935 239.82062693 -241.81081843 246.73164258 -256.33251953 253.32666016 C-259.779453 254.89511047 -263.21560905 256.48634047 -266.65083313 258.08024597 C-269.78687224 259.53472875 -272.925379 260.98383815 -276.0642395 262.43222046 C-277.57424993 263.12998132 -279.08346225 263.82947264 -280.59176636 264.53091431 C-289.92283466 268.8661294 -299.2324089 272.73116473 -309 276 C-310.05614502 276.3616626 -311.11229004 276.7233252 -312.20043945 277.09594727 C-319.31775697 279.39431883 -326.54519874 279.12215234 -333.9375 279.0625 C-335.53561523 279.05573242 -335.53561523 279.05573242 -337.16601562 279.04882812 C-339.77740291 279.03711787 -342.38867124 279.02071724 -345 279 C-348.37267336 270.13083269 -350.70072784 258.89113547 -346.625 249.8125 C-345.51953125 248.0390625 -345.51953125 248.0390625 -344 246 C-342.92298828 244.52660156 -342.92298828 244.52660156 -341.82421875 243.0234375 C-339.28820272 239.62389261 -336.65483713 236.30711172 -334 233 C-332.84371094 231.54980469 -332.84371094 231.54980469 -331.6640625 230.0703125 C-327.37693081 224.76028623 -322.94058749 219.6189185 -318.3359375 214.58203125 C-317.06521031 213.17743147 -315.80075329 211.76657532 -314.57104492 210.32592773 C-309.67292839 204.60301975 -304.41862217 199.26590111 -299.0847168 193.9543457 C-297.56508332 192.4400742 -296.05087483 190.9205257 -294.53710938 189.40039062 C-289.19673527 184.05597971 -283.75797377 178.89617304 -278 174 C-276.80822393 172.95502871 -275.61810168 171.90816809 -274.4296875 170.859375 C-266.75614358 164.13246989 -258.94885542 157.6477256 -250.85839844 151.42871094 C-248.89387861 149.91841535 -246.93526477 148.4006433 -244.9765625 146.8828125 C-230.99926274 136.08757539 -216.77181886 125.68483488 -202 116 C-200.31673024 114.86783636 -198.6335012 113.73561139 -196.95117188 112.60205078 C-165.1353311 91.22418772 -132.02125662 71.76882013 -98.81201172 52.65576172 C-90.53410686 47.8911039 -82.27906565 43.08858378 -74.03515625 38.26538086 C-68.91346199 35.27199222 -63.7824439 32.29666942 -58.6328125 29.3515625 C-46.04181379 22.14548272 -33.58976746 14.76647739 -21.27392578 7.10205078 C-19.73454346 6.14468018 -19.73454346 6.14468018 -18.1640625 5.16796875 C-17.26123535 4.60360107 -16.3584082 4.0392334 -15.42822266 3.45776367 C-9.89011839 0.13300793 -6.37050273 -0.18736773 0 0 Z " fill="#FAFAFA" transform="translate(410,1064)"/>
<path d="M0 0 C1.56234375 0.02707031 1.56234375 0.02707031 3.15625 0.0546875 C4.31640625 0.08949219 4.31640625 0.08949219 5.5 0.125 C0.18920438 17.47359902 -14.11591744 28.35583647 -28.05859375 38.765625 C-43.02036782 49.9762521 -57.08021534 62.46743562 -71.26367188 74.63842773 C-80.91550874 82.91737401 -90.63041254 91.10596019 -100.5 99.125 C-101.75015432 100.14564434 -103.00014375 101.16649067 -104.25 102.1875 C-112.92431809 109.26566756 -121.66821668 116.24455578 -130.5 123.125 C-131.20946777 123.67833008 -131.91893555 124.23166016 -132.64990234 124.80175781 C-142.23890993 132.27891292 -151.84460197 139.73371204 -161.5 147.125 C-162.25619629 147.70475586 -163.01239258 148.28451172 -163.79150391 148.88183594 C-181.40969601 162.38260273 -199.25246766 175.54896939 -217.26611328 188.51611328 C-220.26191015 190.67374184 -223.25473252 192.83547413 -226.24731445 194.99755859 C-227.74953262 196.0828286 -229.25197422 197.16778941 -230.75463867 198.25244141 C-234.48294395 200.94373729 -238.20880052 203.63829909 -241.9296875 206.33984375 C-251.42974683 213.23101893 -261.00356877 220.00767319 -270.62890625 226.72265625 C-275.09757153 229.84043196 -279.55142404 232.97865119 -284 236.125 C-298.13482105 246.11432008 -312.28980084 256.07821304 -326.59423828 265.82373047 C-327.88118843 266.70247045 -329.16597284 267.58438943 -330.44873047 268.46923828 C-353.48099722 284.35177364 -353.48099722 284.35177364 -365.5 284.125 C-365.59451977 276.90587061 -365.64570051 269.6883556 -365.60546875 262.46875 C-365.59926514 261.24607422 -365.59306152 260.02339844 -365.58666992 258.76367188 C-364.83452239 227.18618768 -353.78701999 184.53626881 -330.5 162.125 C-314.10981957 147.78061858 -294.08346938 138.1134101 -274.6875 128.5625 C-272.75680629 127.60292782 -270.82646708 126.64264205 -268.89648438 125.68164062 C-259.61690883 121.0716337 -250.30243936 116.54360213 -240.94140625 112.1015625 C-225.63245303 104.82376235 -210.49436694 97.19768503 -195.33789062 89.60913086 C-191.09133383 87.48299571 -186.84296295 85.36051373 -182.5941124 83.23896694 C-161.43471854 72.70124255 -161.43471854 72.70124255 -140.46740723 61.78903198 C-129.3675245 55.89326592 -118.08554213 50.34308255 -106.84082031 44.73022461 C-103.44367944 43.03449222 -100.04835744 41.3351536 -96.65350437 39.63484669 C-16.73799076 -0.38040888 -16.73799076 -0.38040888 0 0 Z " fill="#F7F7F7" transform="translate(784.5,875.875)"/>
<path d="M0 0 C1.65322266 0.01740234 1.65322266 0.01740234 3.33984375 0.03515625 C4.44457031 0.04417969 5.54929687 0.05320312 6.6875 0.0625 C7.54214844 0.07410156 8.39679687 0.08570313 9.27734375 0.09765625 C10.40952993 22.45833338 7.48505744 46.58780058 1.27734375 68.09765625 C0.97441406 69.16242188 0.67148438 70.2271875 0.359375 71.32421875 C-0.30620381 73.5928113 -0.99334226 75.84893811 -1.72265625 78.09765625 C-1.05621094 77.96488281 -0.38976563 77.83210938 0.296875 77.6953125 C1.67939453 77.43041016 1.67939453 77.43041016 3.08984375 77.16015625 C4.42982422 76.89912109 4.42982422 76.89912109 5.796875 76.6328125 C14.17600813 75.34443849 22.50899513 74.95174464 30.9765625 75 C32.41815483 75.00212242 32.41815483 75.00212242 33.88887024 75.00428772 C36.91422841 75.0098195 39.9395085 75.02235852 42.96484375 75.03515625 C45.03450413 75.04018009 47.10416568 75.04474144 49.17382812 75.04882812 C54.20836275 75.05976644 59.24284008 75.07698263 64.27734375 75.09765625 C63.67678146 76.40626272 63.06379429 77.70917224 62.44555664 79.00952148 C62.10553116 79.73566147 61.76550568 80.46180145 61.41517639 81.20994568 C60.27734375 83.09765625 60.27734375 83.09765625 57.5859375 84.5078125 C56.49410156 84.70246094 55.40226562 84.89710938 54.27734375 85.09765625 C53.62266113 85.21866699 52.96797852 85.33967773 52.29345703 85.46435547 C49.98070872 85.86899529 47.66465718 86.20708263 45.33984375 86.53515625 C44.47738037 86.66293457 43.61491699 86.79071289 42.72631836 86.92236328 C37.9278698 87.62177052 33.12754832 88.24084315 28.30859375 88.78125 C12.4291428 89.89205902 12.4291428 89.89205902 -1.72265625 96.09765625 C-8.08969431 104.26407464 -11.17380109 115.24286604 -13.72265625 125.09765625 C-14.01269531 126.18949219 -14.30273438 127.28132812 -14.6015625 128.40625 C-17.68730033 140.40060332 -20.41060055 152.48876958 -23.20040894 164.55453491 C-24.26564056 169.15239745 -25.34920828 173.74564098 -26.4418335 178.33706665 C-35.47822095 216.33572195 -39.83791831 253.08287081 -40.72265625 292.09765625 C-38.98095323 292.42575942 -37.2386458 292.75065507 -35.49609375 293.07421875 C-34.52591309 293.25549316 -33.55573242 293.43676758 -32.55615234 293.62353516 C-22.55668342 295.29671874 -12.68947473 293.69419955 -4.234375 287.8046875 C-0.58337943 285.07152294 2.86152245 282.11671455 6.27734375 279.09765625 C6.8398584 278.60668457 7.40237305 278.11571289 7.98193359 277.60986328 C25.84828679 261.92170119 39.85998088 243.64222709 52.90136719 223.84814453 C65.11629598 205.51901393 79.57676769 197.56576283 100.49609375 192.28515625 C113.29886296 189.75274036 127.25500742 189.5986504 139.27734375 195.09765625 C144.3912964 198.95921233 148.02675332 204.76133143 149.27734375 211.09765625 C151.24099761 229.22121563 143.0873328 250.66888284 132.01708984 264.69433594 C120.22012721 278.76895105 107.49721981 285.93837846 89.27734375 289.09765625 C84.53817386 289.50650643 79.84449965 289.56368937 75.08984375 289.53515625 C73.89681641 289.55513672 72.70378906 289.57511719 71.47460938 289.59570312 C61.86764057 289.59042167 54.25835348 287.63491232 46.40234375 281.97265625 C43.7587709 280.08996415 41.19293679 278.52013757 38.27734375 277.09765625 C37.77509277 277.62085449 37.2728418 278.14405273 36.75537109 278.68310547 C17.54856281 298.58165657 -4.47776975 317.93994129 -33.72265625 319.09765625 C-34.66753906 319.13761719 -35.61242188 319.17757813 -36.5859375 319.21875 C-43.22496542 319.36215975 -49.32614257 318.90725997 -55.72265625 317.09765625 C-56.75003906 316.82566406 -57.77742188 316.55367187 -58.8359375 316.2734375 C-63.34991574 314.79082438 -66.69394556 313.55651367 -69.48828125 309.59375 C-70.87184537 306.46406129 -71.8373567 303.40199799 -72.72265625 300.09765625 C-73.0371875 299.11410156 -73.35171875 298.13054687 -73.67578125 297.1171875 C-83.1627655 262.40344969 -69.27089137 223.3181851 -59.72265625 190.09765625 C-56.47858202 178.70177972 -53.49087737 167.2879457 -50.91015625 155.72265625 C-48.5780944 145.31569132 -45.8669607 135.04676788 -42.97265625 124.78515625 C-42.77602386 124.08521545 -42.57939148 123.38527466 -42.37680054 122.66412354 C-38.86296054 110.19069959 -38.86296054 110.19069959 -36.72265625 105.09765625 C-38.39884033 105.23397461 -38.39884033 105.23397461 -40.10888672 105.37304688 C-44.34660947 105.71573753 -48.58504494 106.04884452 -52.82373047 106.37939453 C-54.6409878 106.52238239 -56.45805595 106.66780009 -58.27490234 106.81591797 C-70.45370274 107.80666709 -82.50354117 108.29934728 -94.72265625 108.09765625 C-94.72265625 105.45765625 -94.72265625 102.81765625 -94.72265625 100.09765625 C-76.99987853 88.87163802 -52.18830724 87.56143832 -31.72265625 88.09765625 C-31.64789062 87.43765625 -31.573125 86.77765625 -31.49609375 86.09765625 C-30.19475638 76.29935131 -27.75199273 66.86443439 -25.2890625 57.3046875 C-24.28682784 53.39809186 -23.34973701 49.48939961 -22.5 45.546875 C-12.71784718 0.45616382 -12.71784718 0.45616382 0 0 Z " fill="#0F0F0F" transform="translate(2521.72265625,421.90234375)"/>
<path d="M0 0 C0.97259766 -0.01224609 1.94519531 -0.02449219 2.94726562 -0.03710938 C9.31728213 -0.0500478 14.98339708 -0.01638031 20.40234375 3.7109375 C24.36296341 7.96793006 25.625 10.79713639 25.625 16.6875 C25.51367346 18.52325186 25.37955227 20.35843073 25.1875 22.1875 C13.82259897 21.47248967 2.51262846 20.36102941 -8.8125 19.1875 C-11.79596764 33.19914269 -11.58615169 40.73701721 -3.8125 53.1875 C-3.07515625 54.12078125 -2.3378125 55.0540625 -1.578125 56.015625 C0.74730797 60.19317272 0.56127499 63.51531267 0.1875 68.1875 C30.49633893 56.28111549 30.49633893 56.28111549 58.76953125 40.40234375 C62.10354522 38.72725757 64.79660384 38.89616646 68.5 39 C69.75425781 39.02707031 71.00851562 39.05414062 72.30078125 39.08203125 C73.25339844 39.11683594 74.20601562 39.15164063 75.1875 39.1875 C72.84515963 49.39928212 69.29939262 54.40830201 60.4375 60 C55.78013965 62.75596094 51.0530531 65.36574777 46.30151367 67.95507812 C42.57577252 69.99590546 38.87891288 72.08540749 35.1875 74.1875 C34.16011719 74.75984375 33.13273437 75.3321875 32.07421875 75.921875 C28.34477302 78.32489904 26.55419973 79.88479501 25.33203125 84.2265625 C24.31083015 93.02304726 25.80419809 99.16580185 31.1875 106.1875 C35.31610491 116.14738266 34.22791333 130.0807795 31.4765625 140.2890625 C25.58077925 153.54564182 8.91030281 161.09274932 -3.8125 166.1875 C-17.65998688 171.17505827 -31.11243869 173.79633111 -45.8125 174.1875 C-46.93591797 174.22979736 -46.93591797 174.22979736 -48.08203125 174.27294922 C-60.9254195 174.64763921 -60.9254195 174.64763921 -65.40234375 171.18359375 C-67.17993015 168.91889778 -68.55966472 166.77384557 -69.8125 164.1875 C-70.1425 163.5275 -70.4725 162.8675 -70.8125 162.1875 C-71.7287464 152.56691283 -70.59027896 145.54229336 -65.8125 137.1875 C-65.36648438 136.34574219 -64.92046875 135.50398437 -64.4609375 134.63671875 C-60.76592538 128.00014671 -56.05308364 122.64790677 -50.8125 117.1875 C-50.14734375 116.45917969 -49.4821875 115.73085938 -48.796875 114.98046875 C-42.93552674 108.77236133 -36.25240783 103.81550429 -29.38671875 98.7890625 C-28.76313477 98.32846436 -28.13955078 97.86786621 -27.49707031 97.39331055 C-26.15201747 96.43052562 -24.75309469 95.54315396 -23.33984375 94.68359375 C-21.56476654 93.24432591 -21.56476654 93.24432591 -21.4296875 90.68359375 C-22.58337812 76.99662778 -27.42579938 64.31079398 -33.515625 52.08203125 C-38.47522572 41.01256098 -37.98769627 28.57372866 -34.8984375 16.99609375 C-31.80243413 8.98880445 -24.98428431 5.90540415 -17.58203125 2.3515625 C-11.70890774 -0.11697178 -6.29962091 0.00412549 0 0 Z " fill="#0E0E0E" transform="translate(1922.8125,703.8125)"/>
<path d="M0 0 C2.03848262 0.02380029 4.07566941 0.02051576 6.11425781 0.01391602 C17.37341189 0.07547203 17.37341189 0.07547203 21.77832031 2.33618164 C23.58865181 5.43784175 24.13564444 8.82509214 24.77832031 12.33618164 C24.95363281 13.28364258 25.12894531 14.23110352 25.30957031 15.20727539 C25.93782408 21.77776275 24.37118731 25.88648327 20.34082031 31.02368164 C18.54570119 33.18523636 16.68038331 35.26863304 14.77832031 37.33618164 C14.01390625 38.19727539 13.24949219 39.05836914 12.46191406 39.94555664 C4.24819824 48.70293523 -6.74760628 55.60428918 -18.921875 56.65576172 C-22.92278904 56.72796874 -26.9099764 56.68763325 -30.90917969 56.58618164 C-32.30433601 56.56606309 -33.69952072 56.54782189 -35.09472656 56.53149414 C-38.47068201 56.48476811 -41.84627584 56.41304093 -45.22167969 56.33618164 C-42.58167969 64.25618164 -39.94167969 72.17618164 -37.22167969 80.33618164 C-9.01801112 81.07449757 9.48993344 77.43405025 30.59863281 57.69946289 C35.96960875 52.45565491 40.83841583 46.97768943 45.51269531 41.10961914 C48.69594057 37.21288788 52.09709813 33.53331346 55.51660156 29.84399414 C57.83555959 27.3688582 57.83555959 27.3688582 59.77441406 24.53540039 C61.77832031 22.33618164 61.77832031 22.33618164 64.13769531 21.84790039 C64.92660156 21.9059082 65.71550781 21.96391602 66.52832031 22.02368164 C67.72714844 22.09135742 67.72714844 22.09135742 68.95019531 22.16040039 C69.85511719 22.24741211 69.85511719 22.24741211 70.77832031 22.33618164 C69.66726961 40.85369329 59.27678712 55.56442474 46.77832031 68.33618164 C46.12089844 69.04387695 45.46347656 69.75157227 44.78613281 70.48071289 C29.90993529 86.15498968 10.91129744 96.73444461 -10.22167969 101.33618164 C-10.93767334 101.50988281 -11.65366699 101.68358398 -12.39135742 101.86254883 C-19.26308309 103.42163928 -25.88098036 103.63665345 -32.90917969 103.58618164 C-34.54209961 103.5977832 -34.54209961 103.5977832 -36.20800781 103.60961914 C-47.63970933 103.58182169 -53.68979574 101.1077987 -62.22167969 93.33618164 C-70.88793358 84.48862537 -72.54722001 76.52137522 -72.60888672 64.44580078 C-72.28143276 46.22427592 -61.3139613 33.41021824 -49.06201172 21.1105957 C-41.20295311 13.53303694 -32.34375293 7.50180409 -22.22167969 3.33618164 C-21.61936523 3.06765381 -21.01705078 2.79912598 -20.39648438 2.52246094 C-13.70681719 -0.13566937 -7.12754131 -0.08913754 0 0 Z " fill="#111111" transform="translate(2848.2216796875,578.663818359375)"/>
<path d="M0 0 C0.88977539 -0.01869141 1.77955078 -0.03738281 2.69628906 -0.05664062 C6.64759451 -0.01717311 9.20939641 0.26425584 12.79296875 2.03125 C15.463013 5.51056539 15.16150247 8.34389135 14.6875 12.5 C14.58824219 13.39332031 14.48898438 14.28664063 14.38671875 15.20703125 C14.02499334 18.14455957 13.61413167 21.07123121 13.1875 24 C13.04441406 25.01320313 12.90132812 26.02640625 12.75390625 27.0703125 C12.40334418 29.54761782 12.04777153 32.02409137 11.6875 34.5 C6.98343201 36.36540627 2.74005964 37.86843005 -2.3125 38.5 C-2.82030894 36.29344925 -3.31841365 34.08466395 -3.8125 31.875 C-4.0909375 30.64523437 -4.369375 29.41546875 -4.65625 28.1484375 C-5.25341621 24.82847772 -5.43659534 21.86091549 -5.3125 18.5 C-20.27932721 25.72043957 -20.27932721 25.72043957 -33.75 35.375 C-36.3125 37.5 -36.3125 37.5 -38.3125 37.5 C-37.61125 38.16 -36.91 38.82 -36.1875 39.5 C-29.38170131 46.34457817 -25.03674119 52.80538449 -25 62.75 C-25.13870816 70.8598037 -26.54115794 79.44009084 -32.3125 85.5 C-40.61918936 90.43161521 -50.92235718 90.74341081 -60.3125 89.5 C-63.735833 88.49593773 -66.2102128 87.3049671 -69.3125 85.5 C-69.592146 86.37865723 -69.87179199 87.25731445 -70.15991211 88.16259766 C-73.21594519 97.01156446 -77.65745476 106.8005455 -84.3125 113.5 C-89.85421219 115.97355394 -95.5945797 114.85586613 -101.3125 113.5 C-100.12254372 86.8695992 -90.97896839 62.04362333 -81.42382812 37.38720703 C-80.30980544 34.49299959 -79.22151431 31.59032285 -78.140625 28.68359375 C-77.79064453 27.74749268 -77.44066406 26.8113916 -77.08007812 25.84692383 C-76.42965396 24.1071016 -75.78222046 22.36615647 -75.13867188 20.6237793 C-69.50689135 5.69439135 -69.50689135 5.69439135 -65.3125 1.5 C-59.07187902 1.22293226 -53.0734485 3.33453709 -47.3125 5.5 C-46.8175 8.965 -46.8175 8.965 -46.3125 12.5 C-45.29414063 11.96890625 -44.27578125 11.4378125 -43.2265625 10.890625 C-29.09092833 3.73830508 -15.87544376 0.23111565 0 0 Z " fill="#0D0D0D" transform="translate(2762.3125,587.5)"/>
<path d="M0 0 C0.97582031 0.00902344 1.95164062 0.01804687 2.95703125 0.02734375 C4.06111328 0.04474609 4.06111328 0.04474609 5.1875 0.0625 C5.24622928 3.8749338 5.28133916 7.68724906 5.3125 11.5 C5.32925781 12.56927734 5.34601562 13.63855469 5.36328125 14.74023438 C5.46248532 30.96010031 -0.36865556 44.32946094 -11.8125 56.0625 C-18.71835356 61.87325057 -27.34668777 67.93475613 -36.7578125 67.38671875 C-40.58715398 66.78246905 -44.40826791 65.95530954 -47.8125 64.0625 C-50.60708943 59.551793 -50.14288649 55.02273122 -50.125 49.875 C-50.14111328 48.96685547 -50.15722656 48.05871094 -50.17382812 47.12304688 C-50.18358161 33.49742757 -44.25908806 24.27148929 -34.9375 14.8125 C-25.05232909 5.08620602 -14.09713728 -0.16984503 0 0 Z " fill="#F3F3F3" transform="translate(2638.8125,629.9375)"/>
<path d="M0 0 C1.9490625 0.7425 1.9490625 0.7425 3.9375 1.5 C3.9375 5.46 3.9375 9.42 3.9375 13.5 C5.2575 13.83 6.5775 14.16 7.9375 14.5 C7.12667969 14.63535156 6.31585937 14.77070312 5.48046875 14.91015625 C-10.59257207 18.03494998 -21.70226978 27.52737521 -30.875 40.6875 C-40.34258151 53.87512531 -49.94025955 65.72106463 -65.0625 72.5 C-65.7225 72.5 -66.3825 72.5 -67.0625 72.5 C-66.30281352 49.97529586 -58.03318137 33.51709912 -44.0625 16.5 C-43.31419922 15.50419922 -43.31419922 15.50419922 -42.55078125 14.48828125 C-31.78258148 0.6157356 -17.04284615 -5.19868113 0 0 Z " fill="#EBEBEB" transform="translate(1569.0625,799.5)"/>
<path d="M0 0 C2.64 0.99 5.28 1.98 8 3 C8 12.57 8 22.14 8 32 C-10.35443249 42.61677958 -25.78333004 45.9709121 -47 45 C-41.3936832 26.20897836 -24.60250369 12.02074338 -9.7109375 0.2734375 C-5.99105577 -1.4739421 -3.96496004 -0.97221835 0 0 Z " fill="#EBEBEB" transform="translate(1920,811)"/>
<path d="M0 0 C5.27688733 1.8656586 9.54460606 4.52831372 13 9 C14.69387655 14.55116035 15.35390442 19.59002563 15.3125 25.375 C15.31121094 26.13796387 15.30992188 26.90092773 15.30859375 27.68701172 C15.1683187 36.27359834 13.66863715 44.59722009 12 53 C10.69211261 53.49161725 9.37828093 53.96741758 8.0625 54.4375 C7.33160156 54.70433594 6.60070313 54.97117187 5.84765625 55.24609375 C1.94007004 56.28061246 -1.98182907 56.6324209 -6 57 C-6.17128418 56.25427734 -6.34256836 55.50855469 -6.51904297 54.74023438 C-7.30357598 51.32664173 -8.08927874 47.91331933 -8.875 44.5 C-9.14441406 43.32695313 -9.41382813 42.15390625 -9.69140625 40.9453125 C-9.95566406 39.79804687 -10.21992187 38.65078125 -10.4921875 37.46875 C-10.87914795 35.78023926 -10.87914795 35.78023926 -11.27392578 34.05761719 C-11.85372544 31.61598608 -12.49349244 29.21174627 -13.171875 26.796875 C-14.20461418 22.06186328 -14.36783166 17.58146086 -14.375 12.75 C-14.39949219 11.86570312 -14.42398437 10.98140625 -14.44921875 10.0703125 C-14.47798579 3.72238576 -14.47798579 3.72238576 -12.2734375 0.390625 C-8.20957721 -2.0951727 -4.46498688 -1.04742549 0 0 Z " fill="#1B1B1B" transform="translate(1841,640)"/>
<path d="M0 0 C3.73185007 0.69522689 5.49427392 2.19788473 8.14453125 4.94140625 C10.70298432 11.09804902 6.800998 19.1828106 4.6875 25.0625 C4.39166016 25.92166016 4.09582031 26.78082031 3.79101562 27.66601562 C-0.85940698 40.8137547 -0.85940698 40.8137547 -5.8125 43.55859375 C-13.37007946 45.64248514 -20.16376689 46.5082962 -28 46 C-27.4384459 40.96161186 -25.77409197 36.84958172 -23.5 32.375 C-23.14470215 31.6727832 -22.7894043 30.97056641 -22.42333984 30.24707031 C-18.96333614 23.61099162 -14.74792913 17.78143907 -10 12 C-9.54705566 11.44699219 -9.09411133 10.89398437 -8.62744141 10.32421875 C-5.78158902 6.85715073 -2.90365569 3.41891818 0 0 Z " fill="#E8E8E8" transform="translate(1389,618)"/>
<path d="M0 0 C1.41734767 11.53031483 2.01120221 24.00901912 -4.5390625 34.15625 C-7.02356212 37.29176824 -9.18376864 39.60481864 -13 41 C-17.03867835 41.38463603 -20.95805803 41.29866566 -25 41 C-26.41734767 29.46968517 -27.01120221 16.99098088 -20.4609375 6.84375 C-14.65787256 -0.47990415 -9.06692689 -0.66996997 0 0 Z " fill="#111111" transform="translate(944,835)"/>
<path d="M0 0 C-0.4197198 5.19127119 -0.96578585 10.35977071 -1.8125 15.5 C-1.94269531 16.3146875 -2.07289063 17.129375 -2.20703125 17.96875 C-3 20 -3 20 -4.74902344 21.07373047 C-7.14432886 22.05939086 -9.24567101 22.49452602 -11.80859375 22.8515625 C-13.17661133 23.04492188 -13.17661133 23.04492188 -14.57226562 23.2421875 C-15.51779297 23.36851562 -16.46332031 23.49484375 -17.4375 23.625 C-18.37916016 23.7590625 -19.32082031 23.893125 -20.29101562 24.03125 C-24.57124177 24.62329257 -28.67187819 25.0723363 -33 25 C-30.68704828 16.21078348 -25.71792981 7.96503765 -18 3 C-12.13729754 -0.2189786 -6.57714539 -0.36389944 0 0 Z " fill="#E2E2E2" transform="translate(2848,593)"/>
<path d="M0 0 C0 8.25 0 16.5 0 25 C-9 23 -9 23 -13 21 C-14.08203125 18.7578125 -14.08203125 18.7578125 -14.8125 16.125 C-15.06644531 15.26132812 -15.32039063 14.39765625 -15.58203125 13.5078125 C-16.17872595 9.9276443 -15.73026135 8.04141618 -13.65234375 5.078125 C-13.08644531 4.47484375 -12.52054688 3.8715625 -11.9375 3.25 C-11.38964844 2.63640625 -10.84179688 2.0228125 -10.27734375 1.390625 C-8 0 -8 0 0 0 Z " fill="#DADADA" transform="translate(1052,501)"/>
<path d="M0 0 C0.33 0.66 0.66 1.32 1 2 C1.66 2.33 2.32 2.66 3 3 C1.68 7.62 0.36 12.24 -1 17 C-1.99 16.67 -2.98 16.34 -4 16 C-2.68 10.72 -1.36 5.44 0 0 Z " fill="#E2E2E2" transform="translate(2668,653)"/>
<path d="M0 0 C0.33 0.66 0.66 1.32 1 2 C1.66 2.33 2.32 2.66 3 3 C2.34 5.31 1.68 7.62 1 10 C-1.56687367 6.1496895 -0.83288724 4.41430237 0 0 Z " fill="#BBBBBB" transform="translate(2668,653)"/>
</svg>
